<?xml version="1.0" standalone="no"?>
<!DOCTYPE svg PUBLIC "-//W3C//DTD SVG 1.1//EN" "http://www.w3.org/Graphics/SVG/1.1/DTD/svg11.dtd" >
<svg xmlns="http://www.w3.org/2000/svg">
<metadata>
This is a custom SVG webfont generated by Font Squirrel.
Copyright   : Copyright c 2006 by CDickinson All rights reserved
Designer    : CDickinson
Foundry     : CDickinson
Foundry URL : httptypetrustcom
</metadata>
<defs>
<font id="webfontBBb5RRdT" horiz-adv-x="1116" >
<font-face units-per-em="2048" ascent="1577" descent="-471" />
<missing-glyph horiz-adv-x="512" />
<glyph unicode=" "  horiz-adv-x="512" />
<glyph unicode="&#x09;" horiz-adv-x="512" />
<glyph unicode="&#xa0;" horiz-adv-x="512" />
<glyph unicode="!" horiz-adv-x="681" d="M408 436h-138l-28 1002l194 22zM463 100q0 -51 -36 -87t-87 -36t-86 36t-35 87q0 49 34 88t87 39q51 0 87 -39t36 -88z" />
<glyph unicode="&#x22;" horiz-adv-x="993" d="M401 965h-143l-16 471h174zM737 965h-141l-18 471h174z" />
<glyph unicode="#" horiz-adv-x="1157" d="M492 836l-33 -291h248l32 291h-247zM903 836l-33 -291h166v-152h-182l-43 -393h-166l45 393h-248l-43 -393h-166l46 393h-154v152h170l33 291h-158v151h174l43 395h166l-45 -395h248l43 395h166l-45 -395h163v-151h-180z" />
<glyph unicode="$" horiz-adv-x="1157" d="M500 -158v234q-90 10 -177 46t-153 77l76 141q63 -37 147 -72t154 -35q49 0 91 12.5t73.5 37t50 62.5t18.5 91q0 63 -41 102.5t-101 71t-131 63.5t-131.5 77t-101.5 112.5t-41 173.5q0 127 82 210t209 106v219h152v-213q66 -8 133.5 -29.5t130.5 -60.5l-59 -138 q-53 31 -127 53.5t-136 22.5q-90 0 -147 -40t-57 -124q0 -74 41 -119.5t102 -80.5t132 -64.5t132.5 -72.5t102.5 -108t41 -165q0 -72 -25 -131t-67 -103t-99 -74t-121 -42v-240h-153z" />
<glyph unicode="%" horiz-adv-x="1658" d="M530 1014q0 98 -34.5 154.5t-114.5 56.5q-78 0 -113 -56.5t-35 -154.5q0 -92 35 -149.5t113 -57.5q80 0 114.5 56.5t34.5 150.5zM690 1014q0 -63 -17.5 -125t-54 -109t-96 -76.5t-141.5 -29.5q-84 0 -142.5 29.5t-95.5 76.5t-54 108.5t-17 125.5q0 63 17 125.5t54 111.5 t95.5 79t142.5 30q82 0 141.5 -30t96 -79t54 -111.5t17.5 -125.5zM598 0h-137l586 1337h139zM1427 317q0 96 -35.5 152.5t-113.5 56.5q-80 0 -115 -56t-35 -153q0 -96 35 -151t115 -55q78 0 113.5 54t35.5 152zM1587 317q0 -66 -17.5 -126t-54 -108t-96 -77t-141.5 -29 q-84 0 -142.5 29t-95 77t-54 108.5t-17.5 125.5q0 63 17.5 125t54 110t95 77.5t142.5 29.5q82 0 141.5 -29.5t96 -77.5t54 -110t17.5 -125z" />
<glyph unicode="&#x26;" horiz-adv-x="1343" d="M532 885l95 53q45 27 77.5 57.5t52 67.5t19.5 84q0 61 -47 109.5t-133 48.5q-49 0 -84 -15.5t-56.5 -39t-30.5 -51.5t-9 -52q0 -35 14 -95.5t80 -140.5zM489 698q-84 -55 -140 -128.5t-56 -186.5q0 -49 16.5 -94t51 -80t88 -56.5t126.5 -21.5q92 0 163 33t128 86z M1094 -23l-133 160q-76 -72 -176.5 -116t-231.5 -44q-129 0 -217 39t-141.5 98.5t-77 129t-23.5 129.5q0 86 25.5 152.5t66.5 118.5t95.5 92t113.5 75q-72 90 -111.5 170t-39.5 166q0 70 29.5 127t78.5 98t112.5 63.5t131.5 22.5q55 0 116.5 -17.5t113 -55t85 -97 t33.5 -141.5q0 -72 -27.5 -125t-72.5 -96t-102.5 -79t-118.5 -69l342 -409q37 59 62.5 121.5t42.5 121t24.5 105.5t7.5 76l147 -31q0 -20 -9 -73.5t-30.5 -125t-58.5 -153.5t-90 -158l211 -252z" />
<glyph unicode="'" horiz-adv-x="575" d="M360 965h-143l-16 471h174z" />
<glyph unicode="(" horiz-adv-x="720" d="M483 -365q-59 86 -116.5 189.5t-102.5 224.5t-71.5 260.5t-26.5 296.5q0 156 26.5 295t71.5 261t102.5 225.5t116.5 189.5h183q-61 -84 -119 -191.5t-102 -231.5t-71.5 -262t-27.5 -286q0 -145 27.5 -284.5t71.5 -263.5t101.5 -231.5t119.5 -191.5h-183z" />
<glyph unicode=")" horiz-adv-x="720" d="M238 1577q59 -86 116.5 -189.5t101.5 -224.5t71.5 -260t27.5 -297t-27.5 -296t-71.5 -260t-101.5 -225.5t-116.5 -189.5h-183q61 84 118.5 190.5t101.5 231.5t72 263.5t28 285.5q0 145 -28 284.5t-72 263.5t-101 231.5t-119 191.5h183z" />
<glyph unicode="*" horiz-adv-x="978" d="M866 1094h-272l-2 -4l149 -230l-125 -72l-124 244h-5l-122 -244l-125 72l141 219h-268v133h274l-147 230l125 71l122 -241h5l124 241l125 -71l-149 -217h274v-131z" />
<glyph unicode="+" horiz-adv-x="1236" d="M696 424v-418h-155v418h-418v156h418v415h155v-415h418v-156h-418z" />
<glyph unicode="," horiz-adv-x="520" d="M401 88q0 -59 -18 -117.5t-47 -109.5t-61.5 -91t-59.5 -63l-76 49l38 49.5t35 56t24.5 59.5t7.5 56q-57 10 -85 51.5t-28 80.5q0 55 40 94t93 39q59 0 98 -41t39 -113z" />
<glyph unicode="-" horiz-adv-x="712" d="M82 422v156h549v-156h-549z" />
<glyph unicode="." horiz-adv-x="505" d="M395 109q0 -53 -39 -92.5t-94 -39.5q-53 0 -92 39t-39 93q0 55 39 94t92 39q55 0 94 -39t39 -94z" />
<glyph unicode="/" horiz-adv-x="569" d="M152 -182h-148l416 1620h145z" />
<glyph unicode="0" d="M827 688q0 111 -11 209t-41 173t-83 119t-135 44t-134 -45t-82 -120t-41 -174t-11 -210q0 -109 11 -208t41 -175t82 -120t134 -44t135 45t83 122t41 176t11 208zM1024 684q0 -123 -22.5 -249t-76 -227.5t-143.5 -166t-225 -64.5t-224 64.5t-143.5 166t-76 227.5 t-21.5 249q0 125 21.5 251t76 227.5t143.5 166t224 64.5t225 -64.5t143.5 -166t76 -228.5t22.5 -250z" />
<glyph unicode="1" d="M575 0v1174l-282 -119l-70 151l406 164h135v-1370h-189z" />
<glyph unicode="2" d="M106 0v147l236 192q115 93 204 188.5t142 196.5t53 220q0 125 -67.5 207t-184.5 82q-84 0 -151.5 -29.5t-128.5 -73.5l-86 134q37 27 76 50t84 40.5t97 28t116 10.5q96 0 177 -34t140 -93.5t92 -139t33 -172.5q0 -123 -50 -231.5t-131 -206.5t-182.5 -186t-203.5 -166v-4 h575v-160h-840z" />
<glyph unicode="3" d="M948 391q0 -88 -32.5 -163.5t-93 -131t-147.5 -87.5t-198 -32q-53 0 -106.5 10.5t-101.5 26t-87 32.5t-63 32l61 143q59 -31 134 -57.5t161 -26.5q74 0 126 21.5t85 56.5t48.5 82t15.5 96q0 59 -19.5 108.5t-53.5 84.5t-80 54t-99 19h-88v150h86q94 0 151.5 60.5 t57.5 152.5q0 39 -12.5 77t-39 67.5t-69.5 48t-105 18.5q-68 0 -124 -13.5t-124 -41.5l-51 143q78 35 148.5 53.5t158.5 18.5q92 0 170 -28t133.5 -76t86 -114.5t30.5 -146.5q0 -45 -16.5 -91t-46 -86t-69.5 -70.5t-85 -43.5q55 -14 102.5 -49t82 -83t54 -103.5t19.5 -110.5 z" />
<glyph unicode="4" d="M680 1174h-4l-422 -711v-4h426v715zM864 303v-305l-184 -21v326h-596l-25 119l572 948h233v-911h193v-156h-193z" />
<glyph unicode="5" d="M965 473q0 -98 -33 -188t-97.5 -159t-159.5 -109t-220 -40q-47 0 -96.5 9.5t-97.5 25t-92 33.5t-81 37l53 147q59 -31 146.5 -61.5t165.5 -30.5q86 0 145 26.5t96 71t53.5 102.5t16.5 122q0 49 -14.5 95t-45 83t-78.5 59.5t-116 22.5t-130.5 -15.5t-113.5 -37.5l-86 82 l29 622h704l-18 -160h-524l-19 -364q41 16 91.5 25.5t109.5 9.5q94 0 171 -34t130 -90.5t82 -130t29 -153.5z" />
<glyph unicode="6" d="M827 426q0 135 -55 218t-184 83q-47 0 -87 -14.5t-75 -37t-63.5 -51t-53.5 -57.5q4 -219 69.5 -324.5t188.5 -105.5q70 0 119 25.5t81 66.5t46 92.5t14 104.5zM1026 422q0 -82 -30.5 -162t-89 -142.5t-143.5 -101.5t-196 -39q-121 0 -208 49.5t-142 135.5t-81.5 203.5 t-26.5 257.5q0 125 29.5 260t98 248.5t178 187.5t269.5 74q74 0 144.5 -19.5t140.5 -54.5l-66 -143q-59 29 -118.5 43t-112.5 14q-88 0 -153.5 -39t-109.5 -105.5t-69 -152.5t-31 -180h4q47 59 122 95t173 36q106 0 185 -35t130.5 -97.5t77 -147.5t25.5 -185z" />
<glyph unicode="7" d="M985 1237q-133 -180 -205.5 -351t-106.5 -324.5t-41 -289t-7 -241.5v-31l-189 -23q0 254 40 457t97.5 356.5t117 257t100.5 158.5v4h-625l-19 160h822z" />
<glyph unicode="8" d="M586 803q78 41 130 93t52 142q0 88 -58.5 140.5t-150.5 52.5t-151.5 -53.5t-59.5 -139.5q0 -47 19.5 -81.5t51.5 -62.5t75 -49.5t92 -41.5zM530 633q-47 -23 -89 -49.5t-72.5 -59t-49 -73.5t-18.5 -95q0 -92 67.5 -154.5t190.5 -62.5t189.5 59.5t66.5 157.5 q0 59 -23.5 102.5t-63.5 74t-91.5 54zM1012 356q0 -90 -38 -159.5t-100.5 -118.5t-144.5 -75t-170 -26q-90 0 -172 26t-145.5 75t-100.5 118.5t-37 159.5q0 72 21.5 126.5t57.5 95t83 71.5t101 56q-45 25 -84 54t-69 69t-46 91.5t-16 118.5q0 80 29.5 145.5t83.5 112.5 t129 73t165 26t165 -27t128 -74t83 -112.5t30 -143.5q0 -57 -17.5 -102t-47.5 -82t-69.5 -65.5t-85.5 -53.5q53 -25 101.5 -57.5t85.5 -77.5t58.5 -104.5t21.5 -139.5z" />
<glyph unicode="9" d="M299 944q0 -135 55.5 -218t184.5 -83q47 0 87 14.5t74.5 37t63.5 51t53 57.5q-4 219 -69.5 324.5t-188.5 105.5q-70 0 -119 -25.5t-80.5 -66.5t-46 -93.5t-14.5 -103.5zM100 948q0 82 30 162t88 142.5t144.5 101.5t196.5 39q121 0 208 -49.5t142.5 -135.5t82 -203.5 t26.5 -256.5q0 -125 -31 -260.5t-98.5 -249t-178 -187.5t-270.5 -74q-74 0 -143.5 19.5t-138.5 54.5l65 144q59 -29 118.5 -43.5t113.5 -14.5q88 0 153.5 39t109.5 105.5t68.5 152.5t30.5 180h-4q-47 -59 -122 -95t-173 -36q-109 0 -186.5 35t-129.5 97.5t-77 147.5t-25 185 z" />
<glyph unicode=":" horiz-adv-x="579" d="M432 109q0 -53 -39 -92.5t-94 -39.5q-53 0 -92 39t-39 93q0 55 39 94t92 39q55 0 94 -39t39 -94zM432 831q0 -53 -39 -92t-94 -39q-53 0 -92 39t-39 92q0 55 39 94.5t92 39.5q55 0 94 -39.5t39 -94.5z" />
<glyph unicode=";" horiz-adv-x="550" d="M395 834q0 -55 -39 -94.5t-94 -39.5q-53 0 -92 39t-39 95q0 53 39 92t92 39q55 0 94 -39t39 -92zM401 88q0 -59 -18 -117.5t-47 -109.5t-61.5 -91t-59.5 -63l-76 49l38 49.5t35 56t24.5 59.5t7.5 56q-57 10 -85 51.5t-28 80.5q0 55 40 94t95 39q57 0 96 -41t39 -113z" />
<glyph unicode="&#x3c;" horiz-adv-x="847" d="M629 18l-516 484l516 477l106 -111l-405 -366l405 -373z" />
<glyph unicode="=" horiz-adv-x="1236" d="M123 592v156h991v-156h-991zM123 254v156h991v-156h-991z" />
<glyph unicode="&#x3e;" horiz-adv-x="847" d="M113 129l405 373l-405 366l106 111l516 -477l-516 -484z" />
<glyph unicode="?" horiz-adv-x="964" d="M811 1110q0 -78 -23.5 -133t-57.5 -96t-75 -74t-74.5 -69t-57 -79t-23.5 -104v-119l-181 -30v110q0 100 23 164.5t56.5 111t72.5 78t73 64.5t56.5 71.5t22.5 100.5q0 78 -52.5 134t-140.5 56q-78 0 -141.5 -24.5t-120.5 -63.5l-76 133q66 47 151 83t189 36 q86 0 155.5 -29.5t119 -78.5t77 -112.5t27.5 -129.5zM530 100q0 -51 -34.5 -87t-85.5 -36q-53 0 -87 36t-34 87q0 49 33.5 88t87.5 39q51 0 85.5 -39t34.5 -88z" />
<glyph unicode="@" horiz-adv-x="1646" d="M1563 723q0 -82 -20.5 -159t-61.5 -136t-101.5 -95t-140.5 -36q-66 0 -123 25.5t-94 80.5q-33 -39 -94.5 -72.5t-143.5 -33.5q-55 0 -107 18.5t-91 52t-62.5 82t-23.5 107.5q0 68 30.5 114t77.5 75.5t106.5 44t119.5 16.5l145 4v23q0 80 -29.5 113.5t-111.5 33.5 q-53 0 -116 -16.5t-120 -42.5l-49 125q70 37 143.5 59t141.5 22q147 0 227 -73.5t80 -216.5v-267q0 -57 25.5 -93t76.5 -36q27 0 56.5 13.5t54 46.5t41 87t16.5 134q0 119 -42 226.5t-119.5 189.5t-186.5 129t-244 47q-133 0 -242.5 -47t-186.5 -127t-119 -187.5t-42 -230.5 t42 -233.5t119 -193.5t186.5 -131t242.5 -48q72 0 153 18.5t163 57.5l57 -134q-98 -41 -189.5 -61.5t-183.5 -20.5q-176 0 -314 62.5t-232.5 167t-143.5 239t-49 277.5q0 141 49 274t143.5 234.5t232.5 163t314 61.5t313.5 -61.5t232.5 -163t144.5 -234.5t49.5 -274z M983 514q-4 14 -4 28v29v134l-139 -7q-76 -4 -122 -38.5t-46 -90.5q0 -59 35.5 -92t89.5 -33q57 0 106 23.5t80 46.5z" />
<glyph unicode="A" horiz-adv-x="1243" d="M995 0l-127 418h-493l-127 -418h-215l469 1438h239l469 -1438h-215zM705 948q-12 35 -25 80q-10 39 -25.5 91t-31.5 114h-5q-16 -61 -31.5 -113.5t-25.5 -91.5q-12 -45 -24 -80l-115 -377h399z" />
<glyph unicode="B" horiz-adv-x="1122" d="M1044 416q0 -70 -23.5 -143.5t-78.5 -134t-146 -99.5t-225 -39h-413v1438h362q127 0 217 -27t146.5 -75t83 -116.5t26.5 -150.5q0 -29 -9 -66.5t-31.5 -78.5t-61.5 -80t-96 -66v-4q78 -31 126 -76t75.5 -95t37.5 -99t10 -88zM782 1051q0 51 -11 92t-40 70.5t-80 46 t-131 16.5h-160v-440h189q74 0 120 20.5t70.5 51t33.5 68.5t9 75zM829 420q0 53 -12 100t-42 83t-79 56.5t-125 20.5h-211v-518h195q90 0 144.5 22.5t83 59.5t37.5 83t9 93z" />
<glyph unicode="C" horiz-adv-x="1187" d="M1055 1225q-74 35 -155 53t-163 18q-115 0 -195.5 -48t-133 -130t-76 -188.5t-23.5 -224.5q0 -121 21.5 -224.5t68.5 -179.5t123 -119t185 -43q86 0 176 21.5t170 56.5l53 -149q-92 -47 -194.5 -69t-211.5 -22q-152 0 -265 55.5t-189 154t-114 231.5t-38 287 q0 150 40 286.5t120 240t200.5 165t282.5 61.5q96 0 192.5 -20.5t180.5 -59.5z" />
<glyph unicode="D" horiz-adv-x="1259" d="M1165 719q0 -131 -28.5 -259t-95 -230.5t-177 -166t-274.5 -63.5h-432v1438h432q164 0 274.5 -63.5t177 -166t95 -231.5t28.5 -258zM950 719q0 109 -16 209t-58 178t-116 124t-187 46h-213v-1114h213q113 0 187 46t116 123t58 178t16 210z" />
<glyph unicode="E" horiz-adv-x="1034" d="M158 0v1438h760l-17 -162h-541v-463h498v-160h-498v-491h555l17 -162h-774z" />
<glyph unicode="F" horiz-adv-x="1021" d="M903 1276h-543v-461h502v-162h-502v-653h-202v1438h762z" />
<glyph unicode="G" horiz-adv-x="1327" d="M1180 84q-82 -47 -184.5 -77t-223.5 -30q-178 0 -306 56.5t-211 155t-122 231.5t-39 287q0 152 43 287.5t128 239t213 164t298 60.5q125 0 233.5 -28.5t168.5 -61.5l-60 -141q-72 35 -164 53t-172 18q-125 0 -215 -48t-147.5 -130t-84 -188.5t-26.5 -224.5 q0 -121 22.5 -225.5t77 -180.5t145.5 -119t228 -43q59 0 124 11.5t100 27.5v397h-146l-22 138h342v-629z" />
<glyph unicode="H" horiz-adv-x="1263" d="M903 0v653h-543v-653h-202v1438h202v-625h543v625h205v-1438h-205z" />
<glyph unicode="I" horiz-adv-x="514" d="M158 0v1438h202v-1438h-202z" />
<glyph unicode="J" horiz-adv-x="835" d="M678 381q0 -90 -21.5 -164t-68.5 -127t-120 -83t-177 -30q-72 0 -139.5 19.5t-118.5 46.5l55 147q45 -23 93 -37t108 -14q57 0 94 17.5t57.5 51.5t27.5 86t7 122v1022h203v-1057z" />
<glyph unicode="K" horiz-adv-x="1187" d="M901 0l-391 655h-4l-146 -219v-436h-202v1438h202v-697h5l471 697h225l-436 -625l510 -813h-234z" />
<glyph unicode="L" horiz-adv-x="999" d="M158 0v1438h202v-1276h586v-162h-788z" />
<glyph unicode="M" horiz-adv-x="1562" d="M1239 0l-18 627q0 51 -2 123q-2 61 -4 150v63q0 67 2 149h-5l-53 -178l-43 -133l-41 -115l-211 -541h-168l-209 541l-41 115l-43 133q-25 78 -53 178h-4q0 -123 -1 -212t-1 -150q-2 -72 -2 -123l-20 -627h-195l45 1438h219l238 -660q10 -33 30 -90q16 -51 47 -134 l72 -212h4l72 212l45 134l33 90l237 660h222l45 -1438h-197z" />
<glyph unicode="N" horiz-adv-x="1263" d="M936 0l-586 1018h-4v-1018h-199v1415l179 23l587 -1026h5v1026h196v-1438h-178z" />
<glyph unicode="O" horiz-adv-x="1292" d="M985 719q0 113 -12 217t-49 185t-103.5 129t-173.5 48q-106 0 -172.5 -49t-103.5 -130t-49.5 -185.5t-12.5 -214.5q0 -111 12.5 -215.5t49.5 -185t103.5 -130t172.5 -49.5t173 49.5t104 130t49 185t12 215.5zM1200 719q0 -133 -26.5 -265t-90 -237.5t-170 -172.5 t-266.5 -67t-266.5 67t-170 172.5t-90 237.5t-26.5 265q0 131 26.5 263t90 238.5t170 172t266.5 65.5t266.5 -65.5t170 -171t90 -237.5t26.5 -265z" />
<glyph unicode="P" horiz-adv-x="1067" d="M993 1001q0 -104 -32.5 -186t-90 -137t-136.5 -84t-171 -29h-203v-565h-202v1438h397q92 0 173 -29t139.5 -84t92 -137.5t33.5 -186.5zM778 1001q0 119 -54 197t-183 78h-181v-551h185q66 0 109.5 20.5t71.5 57.5t40 88t12 110z" />
<glyph unicode="Q" horiz-adv-x="1292" d="M1192 -250q-10 -6 -33.5 -12t-54.5 -6q-57 0 -121.5 24.5t-127 61.5t-117 80t-91.5 79q-160 0 -266.5 67t-170 172.5t-90 237.5t-26.5 265q0 131 26.5 263t90 238.5t170 172t266.5 65.5t266.5 -65.5t170 -171t90 -237.5t26.5 -265q0 -111 -17.5 -222.5t-60.5 -207.5 t-112.5 -171t-173.5 -112v-4q27 -18 63.5 -36.5t76.5 -33t80 -22.5t70 -8q23 0 43.5 4t34.5 8zM985 719q0 113 -12 217t-49 184t-103.5 128t-173.5 48q-106 0 -172.5 -48t-103.5 -129t-49.5 -185.5t-12.5 -214.5q0 -111 12.5 -215.5t49.5 -185t103.5 -130t172.5 -49.5 t173 49.5t104 130t49 185t12 215.5z" />
<glyph unicode="R" horiz-adv-x="1079" d="M799 0l-289 575h-150v-575h-202v1438h397q92 0 173 -29t139.5 -83t92 -135t33.5 -185q0 -78 -22.5 -144.5t-61.5 -118t-93 -88.5t-116 -57l326 -598h-227zM778 1006q0 117 -54 193.5t-183 76.5h-181v-545h185q61 0 105 22.5t73 59.5t42 87.5t13 105.5z" />
<glyph unicode="S" horiz-adv-x="991" d="M897 381q0 -96 -40 -172t-105.5 -127t-150.5 -78t-173 -27q-98 0 -206.5 37t-188.5 95l69 147q72 -41 157 -79t169 -38q117 0 189.5 68.5t72.5 185.5q0 76 -43 124t-107.5 86t-139 74t-139 87t-107.5 126t-43 191q0 88 35.5 159t95 119t137.5 73.5t162 25.5 q92 0 180 -26.5t166 -67.5l-68 -141q-59 31 -135 53t-143 22q-111 0 -167.5 -61t-56.5 -152q0 -86 43 -140t107.5 -93t139.5 -74t139.5 -84t107.5 -122.5t43 -190.5z" />
<glyph unicode="T" horiz-adv-x="1028" d="M614 1276v-1276h-200v1276h-361v162h922v-162h-361z" />
<glyph unicode="U" horiz-adv-x="1288" d="M1141 498q0 -115 -29 -211.5t-89 -165t-152.5 -106.5t-219.5 -38q-129 0 -222 38t-153.5 106.5t-89 165t-28.5 211.5v940h202v-963q0 -70 13.5 -131t45.5 -106t88 -72t142 -27t141.5 27t88 72t45 106.5t12.5 130.5v963h205v-940z" />
<glyph unicode="V" horiz-adv-x="1228" d="M729 0h-227l-449 1427l211 21l273 -936q12 -37 24 -80l24 -88l27 -111h4l28 111l24 88q12 43 24 80l275 936l209 -21z" />
<glyph unicode="W" horiz-adv-x="1769" d="M1427 0h-241l-246 862l-55 209h-4l-54 -209l-247 -862h-242l-285 1425l201 23l164 -838q8 -35 16 -86l43 -252h4l36 147q15 62 28 105q12 51 24 86l211 711h205l211 -711l25 -86q10 -43 26 -105l37 -147h4q27 166 43 252q8 51 17 86l161 828h207z" />
<glyph unicode="X" horiz-adv-x="1204" d="M938 0l-332 582h-4l-338 -582h-211l445 743l-394 695h209l289 -537h4l293 537h211l-397 -695l438 -743h-213z" />
<glyph unicode="Y" horiz-adv-x="1122" d="M659 545v-545h-202v545l-404 882l207 21l184 -436l29 -64l35 -86l49 -125h4l48 125l34 86l29 64l180 426h217z" />
<glyph unicode="Z" horiz-adv-x="1075" d="M971 0h-871l-24 113l645 1159v4h-602v162h821l31 -109l-647 -1163v-4h665z" />
<glyph unicode="[" horiz-adv-x="602" d="M166 -367v1944h381v-154h-199v-1636h199v-154h-381z" />
<glyph unicode="\" horiz-adv-x="569" d="M4 1438h146l415 -1620h-147z" />
<glyph unicode="]" horiz-adv-x="602" d="M436 1577v-1944h-381v154h199v1636h-199v154h381z" />
<glyph unicode="^" horiz-adv-x="976" d="M715 821l-223 451h-5l-223 -451l-151 56l305 561h141l307 -561z" />
<glyph unicode="_" horiz-adv-x="1077" d="M0 -268v133h1077v-133h-1077z" />
<glyph unicode="`" horiz-adv-x="819" d="M205 1430l100 114l309 -293l-77 -86z" />
<glyph unicode="a" horiz-adv-x="985" d="M696 0l-10 104h-4q-41 -57 -117 -92t-162 -35q-66 0 -122 21.5t-99 61.5t-67.5 95.5t-24.5 125.5q0 72 31 125t82 89.5t116.5 56t137.5 23.5l209 11v104q0 102 -40 157.5t-149 55.5q-74 0 -138.5 -21.5t-125.5 -50.5l-61 136q63 35 148 62.5t179 27.5q184 0 277.5 -97.5 t93.5 -267.5v-692h-154zM666 463l-183 -8q-100 -4 -147 -49.5t-47 -118.5q0 -66 36.5 -111t108.5 -45q70 0 123 25.5t109 74.5v232z" />
<glyph unicode="b" horiz-adv-x="1056" d="M967 520q0 -96 -27 -193.5t-83 -175t-144 -126t-209 -48.5q-49 0 -100.5 8.5t-98.5 21.5t-89 30.5t-73 36.5v1396l185 46v-568h4q35 41 104.5 75t143.5 34q102 0 174.5 -48t120 -125t70 -172.5t22.5 -191.5zM768 520q0 78 -12.5 147.5t-39 122t-65.5 83t-94 30.5 q-74 0 -132 -34.5t-97 -75.5v-623q35 -16 82 -27.5t88 -11.5q68 0 119 32t84.5 85t50 123.5t16.5 148.5z" />
<glyph unicode="c" horiz-adv-x="929" d="M889 55q-84 -37 -163 -57.5t-163 -20.5q-125 0 -214 45.5t-146.5 120t-85 173t-27.5 204.5t30 203.5t89 171.5t151.5 118t214.5 44q76 0 143.5 -17.5t158.5 -58.5l-62 -139q-72 35 -129 48t-111 13q-74 0 -127 -30.5t-88.5 -83t-53 -122t-17.5 -149.5q0 -82 16.5 -152.5 t50 -123t85 -82t122.5 -29.5q127 0 264 66z" />
<glyph unicode="d" horiz-adv-x="1075" d="M762 0l-12 119q-16 -25 -45 -50.5t-64 -46t-75 -33t-79 -12.5q-111 0 -187.5 48.5t-122.5 126t-66.5 174t-20.5 192.5q0 102 26.5 199.5t82 172.5t141.5 121t205 46q53 0 108.5 -13.5t83.5 -23.5v473h183v-1493h-158zM737 864q-33 16 -83 27.5t-97 11.5q-68 0 -119 -29.5 t-83.5 -81t-49 -122t-16.5 -152.5q0 -80 11 -150.5t35.5 -122.5t66.5 -83t104 -31q31 0 64.5 12.5t65.5 33t58.5 46t42.5 51.5v590z" />
<glyph unicode="e" horiz-adv-x="1030" d="M739 633q-14 135 -63 202.5t-162 67.5q-92 0 -156.5 -65.5t-78.5 -227.5zM276 473q10 -174 81 -258t194 -84q74 0 140.5 19.5t121.5 42.5l55 -144q-63 -29 -143 -50.5t-184 -21.5q-123 0 -209 46.5t-140.5 122t-78 172t-23.5 198.5q0 96 21.5 193.5t71.5 174.5t131 125 t200 48q117 0 197 -45t128 -118t68.5 -165t20.5 -184v-43z" />
<glyph unicode="f" horiz-adv-x="657" d="M627 1333q-29 10 -60.5 19.5t-66.5 9.5q-29 0 -53.5 -6t-42 -24.5t-27.5 -51.5t-10 -86v-158h229v-133h-229v-903h-185v903h-170v133h170v166q0 55 14.5 111.5t49.5 100.5t93 73t146 29q66 0 114 -13.5t77 -25.5z" />
<glyph unicode="g" horiz-adv-x="999" d="M664 682q0 98 -42 161.5t-141 63.5q-98 0 -137 -63.5t-39 -161.5q0 -96 39 -160.5t137 -64.5q100 0 141.5 64.5t41.5 160.5zM983 913q-2 0 -36 -15t-132 -28q45 -86 45 -188q0 -74 -24.5 -141.5t-71.5 -120.5t-118 -85t-165 -32q-55 0 -102 12.5t-88 34.5 q-35 -31 -35 -59q0 -39 51 -65.5t131 -41.5q76 -14 164 -25.5t163 -41t125 -86t50 -158.5q0 -86 -40 -147.5t-104.5 -101.5t-147.5 -59.5t-167 -19.5q-86 0 -164.5 19.5t-139 57.5t-96.5 94.5t-36 127.5q0 53 18.5 100.5t47.5 90.5l145 -68q-12 -18 -24.5 -44.5t-12.5 -65.5 q0 -70 70.5 -114t191.5 -44t199 44t78 120q0 59 -28 91t-73 48t-102 23.5t-119 19.5q-61 12 -121.5 27.5t-107.5 42t-76 65.5t-29 99q0 53 34 87.5t65 51.5v4q-47 53 -69.5 120.5t-22.5 139.5q0 74 22.5 141.5t68.5 119.5t116.5 84t164.5 32q78 0 141.5 -22.5t110.5 -61.5 l70 20l58 22q30 11 46 25z" />
<glyph unicode="h" horiz-adv-x="1079" d="M762 0v653q0 53 -8.5 99.5t-28.5 80t-55 52t-88 18.5q-72 0 -136.5 -40t-111.5 -101v-762h-184v1470l184 46v-584h4q45 53 111.5 90t144.5 37q88 0 154.5 -30t110.5 -80t65.5 -119.5t21.5 -149.5v-680h-184z" />
<glyph unicode="i" horiz-adv-x="548" d="M170 0v1036l184 23v-1059h-184zM381 1341q0 -47 -37 -79.5t-84 -32.5t-82 32.5t-35 79.5q0 49 35 84t82 35t84 -35t37 -84z" />
<glyph unicode="j" horiz-adv-x="548" d="M354 -178q0 -57 -15 -108.5t-48 -89.5t-82 -59.5t-117 -21.5q-35 0 -81 7.5t-89 23.5l35 145q63 -23 109 -22q31 0 51 11t32.5 28.5t16.5 40t4 45.5v1214l184 21v-1235zM381 1341q0 -47 -37 -79.5t-84 -32.5t-82 32.5t-35 79.5q0 49 35 84t82 35t84 -35t37 -84z" />
<glyph unicode="k" horiz-adv-x="980" d="M762 0l-316 553h-4l-108 -117v-436h-184v1493h184v-838h4l346 381h221l-346 -362l408 -674h-205z" />
<glyph unicode="l" horiz-adv-x="495" d="M143 0v1470l185 46v-1516h-185z" />
<glyph unicode="m" horiz-adv-x="1589" d="M707 0v653q0 51 -6.5 97.5t-24 80t-48 53t-79.5 19.5q-66 0 -123 -40t-98 -95v-768h-185v1036h156l12 -118h4q41 53 105.5 97t142.5 44q102 0 171 -46t108 -118q63 82 137 123t147 41q82 0 144.5 -32t102.5 -84t60.5 -120.5t20.5 -144.5v-678h-184v653q0 51 -6.5 97.5 t-23.5 80t-48 53t-80 19.5q-59 0 -116.5 -38t-110.5 -105q6 -41 6 -82v-678h-184z" />
<glyph unicode="n" horiz-adv-x="1073" d="M754 0v653q0 53 -8.5 99.5t-29 80t-55 52t-88.5 18.5q-72 0 -135 -40t-110 -101v-762h-185v1036h154l14 -118h4q45 57 120 99t153 42q88 0 153.5 -30t109.5 -80t65.5 -119.5t21.5 -149.5v-680h-184z" />
<glyph unicode="o" horiz-adv-x="1058" d="M770 516q0 82 -11 152.5t-40 123t-76 82t-117 29.5q-72 0 -118 -29.5t-72.5 -82t-36.5 -123t-10 -152.5t10 -152.5t38 -122t73 -81t116 -29.5q72 0 119 29.5t75 81t39 122t11 152.5zM969 516q0 -102 -23.5 -199.5t-77 -172t-137.5 -121t-203 -46.5q-121 0 -203.5 46.5 t-135 121t-76 172t-23.5 199.5q0 100 23.5 197.5t76 174.5t135.5 123t201 46q121 0 205 -46t137.5 -123t77 -174.5t23.5 -197.5z" />
<glyph unicode="p" horiz-adv-x="1071" d="M981 516q0 -102 -26.5 -198.5t-82 -172t-141.5 -122t-205 -46.5q-53 0 -108.5 13.5t-83.5 25.5v-450h-184v1470h157l12 -121q16 27 45 51.5t64 45t75 33t81 12.5q111 0 186.5 -48t122.5 -126t67.5 -174.5t20.5 -192.5zM782 516q0 80 -11 150.5t-36.5 123t-67.5 83 t-104 30.5q-35 0 -68.5 -13t-64.5 -34.5t-56.5 -46.5t-39.5 -49v-594q33 -14 82 -24.5t96 -10.5q70 0 120 29.5t84 82t50 122t16 151.5z" />
<glyph unicode="q" horiz-adv-x="1069" d="M913 -434l-184 -21v529q-39 -41 -106.5 -69t-133.5 -28q-106 0 -182 48.5t-124 125t-70.5 173t-22.5 192.5t26.5 193.5t83 175.5t143.5 126t208 48q49 0 100 -9.5t99.5 -22.5t90.5 -30.5t72 -33.5v-1397zM729 870q-33 14 -81 24.5t-89 10.5q-70 0 -120 -31.5t-83.5 -85 t-50 -124t-16.5 -148.5t12 -148.5t40 -122.5t70 -83t101 -31q70 0 124 28.5t93 69.5v641z" />
<glyph unicode="r" horiz-adv-x="712" d="M655 887q-23 8 -42 12t-48 4q-33 0 -66.5 -16.5t-65.5 -42t-58.5 -59t-46.5 -70.5v-715h-185v1036h146l14 -178h4q16 35 43 71t63 64.5t76.5 47t88.5 18.5q33 0 61.5 -7.5t56.5 -17.5z" />
<glyph unicode="s" horiz-adv-x="813" d="M649 840q-47 29 -98 46t-109 17q-53 0 -99 -29.5t-46 -89.5q0 -55 31.5 -88.5t79 -60.5t101.5 -51.5t101 -61.5t79 -91t32 -138q0 -78 -29.5 -137.5t-80 -99.5t-116 -59.5t-135.5 -19.5q-78 0 -161.5 25t-149.5 68l60 139q23 -12 54.5 -26.5t65 -26t66.5 -18.5t59 -7 q78 0 125 36t47 120q0 51 -30.5 82.5t-77.5 57.5t-101.5 50.5t-101.5 61t-78 93t-31 144.5q0 70 31 122t80 88t109.5 53.5t117.5 17.5q78 0 145.5 -20.5t133.5 -61.5z" />
<glyph unicode="t" horiz-adv-x="741" d="M678 12q-37 -14 -88 -24.5t-94 -10.5q-121 0 -194 70t-73 209v647h-184v133h184v291l185 43v-334h235l-22 -133h-213v-610q0 -94 26.5 -128t77.5 -34q29 0 59.5 6t59.5 17z" />
<glyph unicode="u" horiz-adv-x="1095" d="M786 0l-14 119h-4q-45 -57 -120 -99.5t-152 -42.5q-88 0 -154 29t-110 80t-65.5 119.5t-21.5 148.5v682h185v-653q0 -53 8 -99t28.5 -80t55.5 -53.5t88 -19.5q72 0 135.5 41t110.5 102v762h184v-1036h-154z" />
<glyph unicode="v" horiz-adv-x="933" d="M569 0h-204l-349 1026l191 23l164 -529l22 -76q10 -41 28.5 -103t43.5 -155h4q23 92 41 155l31 103l22 76l162 529l193 -23z" />
<glyph unicode="w" horiz-adv-x="1490" d="M1159 0h-205l-98 344l-29 109l-34 133l-45 188h-5l-47 -188l-34 -133l-29 -109l-96 -344h-207l-293 1026l201 23l133 -494l16 -72l22 -100q13 -61 29 -150h4l35 148q14 61 25 100q10 45 18 74l131 481h189l129 -481q8 -29 18 -74l24.5 -100.5t37.5 -147.5h4l27 150 q11 61 22 100q10 45 18 72l129 481h205z" />
<glyph unicode="x" horiz-adv-x="935" d="M707 0l-240 401h-4l-246 -401h-201l338 541l-299 495h207l203 -356h4l197 356h194l-285 -491l345 -545h-213z" />
<glyph unicode="y" horiz-adv-x="966" d="M391 -459l-186 23l184 491l-373 969l185 23l284 -789h4l265 776h196z" />
<glyph unicode="z" horiz-adv-x="827" d="M63 0l-12 96l467 781v4h-424l-12 155h659l13 -92l-471 -786v-4h481v-154h-701z" />
<glyph unicode="{" horiz-adv-x="612" d="M557 -367q-72 0 -132 16.5t-103 53.5t-67 96.5t-24 143.5v368q0 72 -6 115t-24.5 65.5t-53 28.5t-90.5 6v158q55 0 89 6t52.5 28.5t23.5 65.5t5 117v367q0 84 24.5 143t69 96t104.5 53.5t132 16.5v-154q-78 0 -111.5 -45t-33.5 -137v-334q0 -51 -6.5 -94t-25 -80 t-50 -68.5t-82.5 -58.5v-4q51 -25 82.5 -55.5t48 -67.5t23 -80t6.5 -94v-338q0 -92 35.5 -136t113.5 -44v-154z" />
<glyph unicode="|" horiz-adv-x="542" d="M346 -317h-149v1892h149v-1892z" />
<glyph unicode="}" horiz-adv-x="612" d="M57 1577q72 0 132.5 -16.5t103.5 -53.5t66.5 -96t23.5 -143v-369q0 -72 6 -115t24.5 -65.5t53.5 -28.5t90 -6v-158q-55 0 -89 -6t-52.5 -28.5t-23.5 -65.5t-5 -117v-366q0 -84 -24.5 -143.5t-68.5 -96.5t-104.5 -53.5t-132.5 -16.5v154q78 0 112 45t34 137v334 q0 100 30.5 174t133.5 127v4q-51 25 -83 55.5t-48.5 67.5t-22.5 80t-6 94v338q0 92 -36 136t-114 44v154z" />
<glyph unicode="~" horiz-adv-x="1091" d="M958 430q-39 -23 -77.5 -34t-71.5 -17q-37 -8 -74 -8q-53 0 -105 18.5t-101 39.5l-92 40q-44 18 -81 18q-68 0 -122 -17t-101 -40v139q37 23 77 33t73 16q37 6 73 9q53 0 105.5 -18.5t100.5 -40t92 -39t81 -17.5q68 0 121 17.5t102 39.5v-139z" />
<glyph unicode="&#xa1;" horiz-adv-x="681" d="M274 889h138l28 -1002l-194 -22zM219 1225q0 51 36 87t87 36t86 -36t35 -87q0 -49 -34 -88t-87 -39q-51 0 -87 39t-36 88z" />
<glyph unicode="&#xa2;" horiz-adv-x="1157" d="M971 250q-68 -31 -134.5 -50.5t-131.5 -25.5v-211h-154v215q-98 16 -170 66.5t-118 123t-68.5 161.5t-22.5 186q0 94 22.5 182t69.5 158.5t118 120t169 65.5v219h154v-211q59 -6 116.5 -22.5t130.5 -50.5l-63 -142q-72 35 -128 49.5t-110 14.5q-74 0 -126 -31t-87 -83 t-51 -121.5t-16 -149.5q0 -82 16 -153t50 -123t85 -81.5t123 -29.5q127 0 264 65z" />
<glyph unicode="&#xa3;" horiz-adv-x="1157" d="M543 600q10 -41 15 -80t5 -74q0 -94 -21.5 -165.5t-74.5 -118.5v-4h508l-23 -158h-723l-16 127q90 41 127 111.5t37 197.5q0 35 -7.5 76t-17.5 88h-178v113h152q-16 66 -27.5 134t-11.5 134q0 92 31.5 168t88 131t133 85t167.5 30q72 0 140 -15.5t142 -54.5l-63 -145 q-59 29 -107.5 42t-93.5 13q-127 0 -189.5 -74t-62.5 -180q0 -63 13.5 -132t29.5 -136h336v-113h-309z" />
<glyph unicode="&#xa4;" horiz-adv-x="1228" d="M928 707q55 -92 55 -196.5t-57 -197.5l114 -112l-116 -117l-113 115q-92 -57 -196.5 -57.5t-194.5 57.5l-115 -115l-117 115l115 114q-57 90 -57 195.5t55 198.5l-113 112l115 117l115 -113q90 57 196.5 56.5t196.5 -58.5l115 115l114 -117zM778 346q33 33 50.5 76 t17.5 88t-17.5 87t-50.5 77q-35 35 -77 52t-87 17t-88 -17t-75 -52q-35 -35 -52.5 -77t-17.5 -87t17.5 -88t52.5 -76q33 -35 75.5 -51t87.5 -16t87 16t77 51z" />
<glyph unicode="&#xa5;" horiz-adv-x="1157" d="M705 621h292v-127h-327v-132h327v-126h-327v-236h-174v236h-324v126h324v132h-324v127h285l-387 753h192l318 -655h4l319 655h193z" />
<glyph unicode="&#xa6;" horiz-adv-x="542" d="M346 899h-149v676h149v-676zM346 -317h-149v677h149v-677z" />
<glyph unicode="&#xa7;" horiz-adv-x="1034" d="M324 944q-39 -31 -56.5 -78t-17.5 -94q0 -70 24.5 -118t64.5 -87t88 -71l96 -69q48 -36 89 -80t68 -105q37 41 51 99t14 110q0 57 -23.5 99t-61 75.5t-85 64.5t-93.5 66t-88.5 80t-69.5 108zM711 74q0 -86 -29 -161t-81 -132t-126 -90t-162 -33q-66 0 -137.5 15.5 t-142.5 56.5l55 149q49 -29 108.5 -44t106.5 -15q106 0 155.5 72.5t49.5 181.5q0 72 -34 120t-84 89t-108.5 79.5t-108.5 93t-84 128t-34 184.5q0 115 61.5 203t172.5 135q-2 10 -2 18v19q0 82 28.5 149.5t77.5 116.5t114.5 76.5t141.5 27.5q53 0 115.5 -12t126.5 -45 l-49 -147q-55 23 -100.5 33t-86.5 10q-78 0 -123 -56.5t-45 -148.5q0 -86 34 -140.5t84 -95.5t109.5 -77.5t109.5 -85t84 -118t34 -177.5q0 -117 -59 -217.5t-172 -161.5z" />
<glyph unicode="&#xa8;" horiz-adv-x="1079" d="M457 1356q0 -47 -33 -78t-78 -31t-77.5 31t-32.5 78q0 45 32.5 76.5t77.5 31.5t78 -31.5t33 -76.5zM844 1356q0 -47 -33 -79t-78 -32t-77.5 32t-32.5 79q0 45 32.5 76.5t77.5 31.5t78 -31.5t33 -76.5z" />
<glyph unicode="&#xa9;" horiz-adv-x="1310" d="M1212 569q0 -133 -43 -241.5t-118.5 -186.5t-177 -119.5t-218.5 -41.5t-218 41.5t-177 119.5t-119 186.5t-43 241.5t43 242t119 185.5t177.5 118.5t217.5 42q117 0 218.5 -42t177 -118.5t118.5 -185.5t43 -242zM1114 575q0 111 -37 201t-99.5 154.5t-145 99.5t-177.5 35 q-96 0 -179 -36t-146.5 -100.5t-99 -155.5t-35.5 -204t35.5 -204t99 -156.5t146.5 -101t179 -35.5q94 0 178.5 35.5t146.5 101t98 158.5t36 208zM817 745q-45 23 -78.5 31t-66.5 8q-78 0 -123 -62.5t-45 -152.5q0 -92 43 -154.5t119 -62.5q33 0 66.5 8.5t78.5 30.5l49 -108 q-55 -27 -98 -39.5t-96 -12.5q-72 0 -127.5 29t-92 76t-56 107.5t-19.5 125.5q0 63 20.5 125t58 109t94 75.5t128.5 28.5q53 0 94 -12t96 -41z" />
<glyph unicode="&#xaa;" horiz-adv-x="733" d="M506 774l-6 55q-29 -33 -71 -51t-93 -18q-96 0 -159.5 55t-63.5 148q0 49 21.5 84.5t55 58t77.5 34t91 13.5l127 6v47q0 76 -24.5 108t-89.5 32q-41 0 -84 -11.5t-90 -31.5l-47 96q47 27 104 43t119 16q123 0 185.5 -67.5t62.5 -184.5v-432h-115zM485 1067l-110 -6 q-61 -4 -89 -27.5t-28 -70.5q0 -37 22.5 -64t63.5 -27t73 13.5t68 42.5v139z" />
<glyph unicode="&#xab;" horiz-adv-x="1075" d="M840 133l-334 365l334 364l123 -94l-246 -270l246 -271zM446 133l-333 365l333 364l125 -94l-245 -270l245 -271z" />
<glyph unicode="&#xac;" horiz-adv-x="1005" d="M725 147v281h-602v147h760v-428h-158z" />
<glyph unicode="&#xad;" horiz-adv-x="712" d="M82 422v156h549v-156h-549z" />
<glyph unicode="&#xae;" horiz-adv-x="1103" d="M1006 1034q0 -106 -36 -194t-97.5 -150.5t-143.5 -97.5t-176 -35t-177 35t-144.5 97.5t-97.5 150.5t-36 194t36 193.5t97.5 151t143.5 98t176 34.5t177 -34.5t144.5 -97t97.5 -151t36 -194.5zM909 1040q0 88 -28.5 160t-75.5 122t-112.5 76.5t-139.5 26.5 q-76 0 -141.5 -27.5t-114.5 -78.5t-76.5 -124t-27.5 -161q0 -90 27.5 -161.5t75.5 -123t113.5 -79t141.5 -27.5t141.5 27.5t113.5 80t75.5 125t27.5 164.5zM623 784l-91 183h-40v-183h-111v498h164q76 0 128 -38t52 -122q0 -51 -24.5 -87t-65.5 -54l108 -197h-120zM614 1122 q0 31 -14 48.5t-55 17.5h-53v-131h53q43 0 56 18t13 47z" />
<glyph unicode="&#xaf;" horiz-adv-x="929" d="M190 1278v156h549v-156h-549z" />
<glyph unicode="&#xb0;" horiz-adv-x="696" d="M475 1266q0 51 -37 88t-90 37t-90 -37t-37 -88t37 -87t90 -36t90 36t37 87zM584 1266q0 -47 -18.5 -88t-51.5 -72t-75 -48.5t-91 -17.5t-91 17.5t-74.5 48.5t-51 72t-18.5 88t18.5 88t51 71.5t74.5 49t91 18.5t91 -18.5t75 -49t51.5 -71.5t18.5 -88z" />
<glyph unicode="&#xb1;" horiz-adv-x="1236" d="M696 424v-315h-155v315h-418v156h418v315h155v-315h418v-156h-418zM123 -166v139h991v-139h-991z" />
<glyph unicode="&#xb2;" d="M106 0v147l236 192q115 93 204 188.5t142 196.5t53 220q0 125 -67.5 207t-184.5 82q-84 0 -151.5 -29.5t-128.5 -73.5l-86 134q37 27 76 50t84 40.5t97 28t116 10.5q96 0 177 -34t140 -93.5t92 -139t33 -172.5q0 -123 -50 -231.5t-131 -206.5t-182.5 -186t-203.5 -166v-4 h575v-160h-840z" />
<glyph unicode="&#xb3;" d="M948 391q0 -88 -32.5 -163.5t-93 -131t-147.5 -87.5t-198 -32q-53 0 -106.5 10.5t-101.5 26t-87 32.5t-63 32l61 143q59 -31 134 -57.5t161 -26.5q74 0 126 21.5t85 56.5t48.5 82t15.5 96q0 59 -19.5 108.5t-53.5 84.5t-80 54t-99 19h-88v150h86q94 0 151.5 60.5 t57.5 152.5q0 39 -12.5 77t-39 67.5t-69.5 48t-105 18.5q-68 0 -124 -13.5t-124 -41.5l-51 143q78 35 148.5 53.5t158.5 18.5q92 0 170 -28t133.5 -76t86 -114.5t30.5 -146.5q0 -45 -16.5 -91t-46 -86t-69.5 -70.5t-85 -43.5q55 -14 102.5 -49t82 -83t54 -103.5t19.5 -110.5 z" />
<glyph unicode="&#xb4;" horiz-adv-x="823" d="M285 1165l-78 86l307 293l102 -114z" />
<glyph unicode="&#xb5;" horiz-adv-x="1095" d="M786 0l-14 119h-4q-45 -57 -120 -99.5t-152 -42.5q-47 0 -89 9.5t-77 25.5v-446h-185v1470h185v-653q0 -53 8 -99t28.5 -80t55.5 -53.5t88 -19.5q72 0 135.5 41t110.5 102v762h184v-1036h-154z" />
<glyph unicode="&#xb6;" horiz-adv-x="1226" d="M496 606q-86 4 -163 37t-133.5 88t-89 129t-32.5 158q0 86 34.5 161.5t93 132t137.5 89.5t169 33h559v-1602h-184v1452h-207v-1452h-184v774z" />
<glyph unicode="&#xb7;" horiz-adv-x="436" d="M350 731q0 -55 -39 -94t-92 -39q-55 0 -94 39t-39 94q0 53 39 92t94 39q53 0 92 -39t39 -92z" />
<glyph unicode="&#xb8;" horiz-adv-x="804" d="M602 -57q0 -84 -25.5 -149.5t-59.5 -113t-67.5 -75t-48.5 -37.5l-98 88l35 36q23 24 43 57.5t35.5 76.5t15.5 96v21h170z" />
<glyph unicode="&#xb9;" d="M575 0v1174l-282 -119l-70 151l406 164h135v-1370h-189z" />
<glyph unicode="&#xba;" horiz-adv-x="808" d="M696 1108q0 -66 -15 -127t-51 -110.5t-91.5 -79t-135.5 -29.5t-135 29.5t-90 79t-50 110.5t-15 127q0 63 15 126.5t50 113t90.5 80t134.5 30.5q80 0 135.5 -30.5t91.5 -80t51 -113t15 -126.5zM551 1108q0 104 -32 171t-116 67q-86 0 -115.5 -67t-29.5 -171t29.5 -169 t115.5 -65q84 0 116 66t32 168z" />
<glyph unicode="&#xbb;" horiz-adv-x="1075" d="M236 862l333 -364l-333 -365l-123 94l245 271l-245 270zM629 862l334 -364l-334 -365l-125 94l246 271l-246 270z" />
<glyph unicode="&#xbc;" horiz-adv-x="2873" d="M2437 1174h-4l-422 -711v-4h426v715zM2621 303v-305l-184 -21v326h-596l-25 119l572 948h233v-911h193v-156h-193zM1130 -182h-147l760 1620h147zM575 0v1174l-282 -119l-70 151l406 164h135v-1370h-189z" />
<glyph unicode="&#xbd;" horiz-adv-x="2873" d="M1863 0v147l236 192q115 93 204 188.5t142 196.5t53 220q0 125 -67.5 207t-184.5 82q-84 0 -151.5 -29.5t-128.5 -73.5l-86 134q37 27 76 50t84 40.5t97 28t116 10.5q96 0 177 -34t140 -93.5t92 -139t33 -172.5q0 -123 -50 -231.5t-131 -206.5t-182.5 -186t-203.5 -166 v-4h575v-160h-840zM1130 -182h-147l760 1620h147zM575 0v1174l-282 -119l-70 151l406 164h135v-1370h-189z" />
<glyph unicode="&#xbe;" horiz-adv-x="2873" d="M2437 1174h-4l-422 -711v-4h426v715zM2621 303v-305l-184 -21v326h-596l-25 119l572 948h233v-911h193v-156h-193zM1130 -182h-147l760 1620h147zM948 391q0 -88 -32.5 -163.5t-93 -131t-147.5 -87.5t-198 -32q-53 0 -106.5 10.5t-101.5 26t-87 32.5t-63 32l61 143 q59 -31 134 -57.5t161 -26.5q74 0 126 21.5t85 56.5t48.5 82t15.5 96q0 59 -19.5 108.5t-53.5 84.5t-80 54t-99 19h-88v150h86q94 0 151.5 60.5t57.5 152.5q0 39 -12.5 77t-39 67.5t-69.5 48t-105 18.5q-68 0 -124 -13.5t-124 -41.5l-51 143q78 35 148.5 53.5t158.5 18.5 q92 0 170 -28t133.5 -76t86 -114.5t30.5 -146.5q0 -45 -16.5 -91t-46 -86t-69.5 -70.5t-85 -43.5q55 -14 102.5 -49t82 -83t54 -103.5t19.5 -110.5z" />
<glyph unicode="&#xbf;" horiz-adv-x="972" d="M160 215q0 78 23.5 133t57 96t74.5 74t75 69t57.5 79t23.5 104v119l180 31v-111q0 -98 -22.5 -164.5t-56 -112t-72.5 -78t-73 -64.5t-56.5 -71.5t-22.5 -99.5q0 -78 52.5 -134t140.5 -56q78 0 140 24.5t122 63.5l76 -133q-66 -47 -151 -83t-189 -36q-86 0 -156 29.5 t-119 79t-76.5 112.5t-27.5 129zM440 1225q0 51 35 87t86 36q53 0 87 -36t34 -87q0 -49 -34 -88t-87 -39q-51 0 -86 39t-35 88z" />
<glyph unicode="&#xc0;" horiz-adv-x="1245" d="M995 0l-127 418h-493l-127 -418h-215l469 1438h239l469 -1438h-215zM705 948q-12 35 -25 80q-10 39 -25.5 91t-31.5 114h-5q-16 -61 -31.5 -113.5t-25.5 -91.5q-12 -45 -24 -80l-115 -377h399zM418 1840l100 114l309 -293l-77 -86z" />
<glyph unicode="&#xc1;" horiz-adv-x="1245" d="M995 0l-127 418h-493l-127 -418h-215l469 1438h239l469 -1438h-215zM705 948q-12 35 -25 80q-10 39 -25.5 91t-31.5 114h-5q-16 -61 -31.5 -113.5t-25.5 -91.5q-12 -45 -24 -80l-115 -377h399zM496 1575l-78 86l307 293l102 -114z" />
<glyph unicode="&#xc2;" horiz-adv-x="1245" d="M995 0l-127 418h-493l-127 -418h-215l469 1438h239l469 -1438h-215zM705 948q-12 35 -25 80q-10 39 -25.5 91t-31.5 114h-5q-16 -61 -31.5 -113.5t-25.5 -91.5q-12 -45 -24 -80l-115 -377h399zM860 1588l-236 190h-4l-233 -190l-84 114l319 238l320 -238z" />
<glyph unicode="&#xc3;" horiz-adv-x="1245" d="M995 0l-127 418h-493l-127 -418h-215l469 1438h239l469 -1438h-215zM705 948q-12 35 -25 80q-10 39 -25.5 91t-31.5 114h-5q-16 -61 -31.5 -113.5t-25.5 -91.5q-12 -45 -24 -80l-115 -377h399zM910 1784q-8 -20 -23.5 -42.5t-38 -41t-51.5 -31t-64 -12.5 q-39 0 -69.5 12.5t-56 25.5t-47 25.5t-44.5 12.5q-37 0 -77 -57l-101 69q8 20 24.5 43t39 41.5t51.5 30.5t63 12q39 0 70 -12t55 -26l47 -25q23 -12 45 -13q39 0 76 56z" />
<glyph unicode="&#xc4;" horiz-adv-x="1245" d="M995 0l-127 418h-493l-127 -418h-215l469 1438h239l469 -1438h-215zM705 948q-12 35 -25 80q-10 39 -25.5 91t-31.5 114h-5q-16 -61 -31.5 -113.5t-25.5 -91.5q-12 -45 -24 -80l-115 -377h399zM541 1766q0 -47 -33 -78t-78 -31t-77.5 31t-32.5 78q0 45 32.5 76.5 t77.5 31.5t78 -31.5t33 -76.5zM928 1766q0 -47 -33 -79t-78 -32t-77.5 32t-32.5 79q0 45 32.5 76.5t77.5 31.5t78 -31.5t33 -76.5z" />
<glyph unicode="&#xc5;" horiz-adv-x="1245" d="M995 0l-127 418h-493l-127 -418h-215l469 1438h239l469 -1438h-215zM705 948q-12 35 -25 80q-10 39 -25.5 91t-31.5 114h-5q-16 -61 -31.5 -113.5t-25.5 -91.5q-12 -45 -24 -80l-115 -377h399zM704 1764q0 35 -23.5 60.5t-58.5 25.5t-58 -25.5t-23 -60.5t23.5 -59.5 t57.5 -24.5q35 0 58.5 24.5t23.5 59.5zM799 1764q0 -37 -14.5 -69t-38 -55.5t-55.5 -36.5t-69 -13q-74 0 -125 51t-51 123q0 74 51.5 125t124.5 51q37 0 69 -13.5t55.5 -38t38 -56t14.5 -68.5z" />
<glyph unicode="&#xc6;" horiz-adv-x="1777" d="M788 1276h-6l-309 -774h447zM1006 0l-60 346h-543l-149 -346h-221l641 1438h809l30 -162h-532l80 -463h473l27 -162h-474l84 -489h545l29 -162h-739z" />
<glyph unicode="&#xc7;" horiz-adv-x="1187" d="M1055 1225q-74 35 -155 53t-163 18q-115 0 -195.5 -48t-133 -130t-76 -188.5t-23.5 -224.5q0 -121 21.5 -224.5t68.5 -179.5t123 -119t185 -43q86 0 176 21.5t170 56.5l53 -149q-92 -47 -194.5 -69t-211.5 -22q-152 0 -265 55.5t-189 154t-114 231.5t-38 287 q0 150 40 286.5t120 240t200.5 165t282.5 61.5q96 0 192.5 -20.5t180.5 -59.5zM805 -57q0 -84 -25.5 -149.5t-59.5 -113t-67.5 -75t-48.5 -37.5l-98 88l35 36q23 24 43 57.5t35.5 76.5t15.5 96v21h170z" />
<glyph unicode="&#xc8;" horiz-adv-x="1034" d="M158 0v1438h760l-17 -162h-541v-463h498v-160h-498v-491h555l17 -162h-774zM332 1840l100 114l309 -293l-77 -86z" />
<glyph unicode="&#xc9;" horiz-adv-x="1034" d="M158 0v1438h760l-17 -162h-541v-463h498v-160h-498v-491h555l17 -162h-774zM410 1575l-78 86l307 293l102 -114z" />
<glyph unicode="&#xca;" horiz-adv-x="1034" d="M158 0v1438h760l-17 -162h-541v-463h498v-160h-498v-491h555l17 -162h-774zM774 1588l-236 190h-4l-233 -190l-84 114l319 238l320 -238z" />
<glyph unicode="&#xcb;" horiz-adv-x="1034" d="M158 0v1438h760l-17 -162h-541v-463h498v-160h-498v-491h555l17 -162h-774zM457 1766q0 -47 -33 -78t-78 -31t-77.5 31t-32.5 78q0 45 32.5 76.5t77.5 31.5t78 -31.5t33 -76.5zM844 1766q0 -47 -33 -79t-78 -32t-77.5 32t-32.5 79q0 45 32.5 76.5t77.5 31.5t78 -31.5 t33 -76.5z" />
<glyph unicode="&#xcc;" horiz-adv-x="514" d="M158 0v1438h202v-1438h-202zM35 1840l100 114l309 -293l-77 -86z" />
<glyph unicode="&#xcd;" horiz-adv-x="514" d="M158 0v1438h202v-1438h-202zM131 1575l-78 86l307 293l102 -114z" />
<glyph unicode="&#xce;" horiz-adv-x="514" d="M158 0v1438h202v-1438h-202zM496 1588l-236 190h-4l-233 -190l-84 114l319 238l320 -238z" />
<glyph unicode="&#xcf;" horiz-adv-x="514" d="M158 0v1438h202v-1438h-202zM176 1766q0 -47 -33 -78t-78 -31t-77.5 31t-32.5 78q0 45 32.5 76.5t77.5 31.5t78 -31.5t33 -76.5zM563 1766q0 -47 -33 -79t-78 -32t-77.5 32t-32.5 79q0 45 32.5 76.5t77.5 31.5t78 -31.5t33 -76.5z" />
<glyph unicode="&#xd0;" horiz-adv-x="1257" d="M952 719q0 109 -16 209t-58 178t-116 124t-187 46h-215v-461h244v-162h-244v-491h213q113 0 187 46t117 123t59 178t16 210zM1165 719q0 -131 -29.5 -259t-98 -230.5t-181.5 -166t-276 -63.5h-420v653h-160v162h158v623h420q164 0 276.5 -63.5t181 -166t99 -231.5 t30.5 -258z" />
<glyph unicode="&#xd1;" horiz-adv-x="1263" d="M936 0l-586 1018h-4v-1018h-199v1415l179 23l587 -1026h5v1026h196v-1438h-178zM918 1784q-8 -20 -23.5 -42.5t-38 -41t-51.5 -31t-64 -12.5q-39 0 -69.5 12.5t-56 25.5t-47 25.5t-44.5 12.5q-37 0 -77 -57l-101 69q8 20 24.5 43t39 41.5t51.5 30.5t63 12q39 0 70 -12 t55 -26l47 -25q23 -12 45 -13q39 0 76 56z" />
<glyph unicode="&#xd2;" horiz-adv-x="1292" d="M985 719q0 113 -12 217t-49 185t-103.5 129t-173.5 48q-106 0 -172.5 -49t-103.5 -130t-49.5 -185.5t-12.5 -214.5q0 -111 12.5 -215.5t49.5 -185t103.5 -130t172.5 -49.5t173 49.5t104 130t49 185t12 215.5zM1200 719q0 -133 -26.5 -265t-90 -237.5t-170 -172.5 t-266.5 -67t-266.5 67t-170 172.5t-90 237.5t-26.5 265q0 131 26.5 263t90 238.5t170 172t266.5 65.5t266.5 -65.5t170 -171t90 -237.5t26.5 -265zM441 1840l100 114l309 -293l-77 -86z" />
<glyph unicode="&#xd3;" horiz-adv-x="1292" d="M985 719q0 113 -12 217t-49 185t-103.5 129t-173.5 48q-106 0 -172.5 -49t-103.5 -130t-49.5 -185.5t-12.5 -214.5q0 -111 12.5 -215.5t49.5 -185t103.5 -130t172.5 -49.5t173 49.5t104 130t49 185t12 215.5zM1200 719q0 -133 -26.5 -265t-90 -237.5t-170 -172.5 t-266.5 -67t-266.5 67t-170 172.5t-90 237.5t-26.5 265q0 131 26.5 263t90 238.5t170 172t266.5 65.5t266.5 -65.5t170 -171t90 -237.5t26.5 -265zM518 1575l-78 86l307 293l102 -114z" />
<glyph unicode="&#xd4;" horiz-adv-x="1292" d="M985 719q0 113 -12 217t-49 185t-103.5 129t-173.5 48q-106 0 -172.5 -49t-103.5 -130t-49.5 -185.5t-12.5 -214.5q0 -111 12.5 -215.5t49.5 -185t103.5 -130t172.5 -49.5t173 49.5t104 130t49 185t12 215.5zM1200 719q0 -133 -26.5 -265t-90 -237.5t-170 -172.5 t-266.5 -67t-266.5 67t-170 172.5t-90 237.5t-26.5 265q0 131 26.5 263t90 238.5t170 172t266.5 65.5t266.5 -65.5t170 -171t90 -237.5t26.5 -265zM883 1588l-236 190h-4l-233 -190l-84 114l319 238l320 -238z" />
<glyph unicode="&#xd5;" horiz-adv-x="1292" d="M985 719q0 113 -12 217t-49 185t-103.5 129t-173.5 48q-106 0 -172.5 -49t-103.5 -130t-49.5 -185.5t-12.5 -214.5q0 -111 12.5 -215.5t49.5 -185t103.5 -130t172.5 -49.5t173 49.5t104 130t49 185t12 215.5zM1200 719q0 -133 -26.5 -265t-90 -237.5t-170 -172.5 t-266.5 -67t-266.5 67t-170 172.5t-90 237.5t-26.5 265q0 131 26.5 263t90 238.5t170 172t266.5 65.5t266.5 -65.5t170 -171t90 -237.5t26.5 -265zM932 1784q-8 -20 -23.5 -42.5t-38 -41t-51.5 -31t-64 -12.5q-39 0 -69.5 12.5t-56 25.5t-47 25.5t-44.5 12.5q-37 0 -77 -57 l-101 69q8 20 24.5 43t39 41.5t51.5 30.5t63 12q39 0 70 -12t55 -26l47 -25q23 -12 45 -13q39 0 76 56z" />
<glyph unicode="&#xd6;" horiz-adv-x="1292" d="M985 719q0 113 -12 217t-49 185t-103.5 129t-173.5 48q-106 0 -172.5 -49t-103.5 -130t-49.5 -185.5t-12.5 -214.5q0 -111 12.5 -215.5t49.5 -185t103.5 -130t172.5 -49.5t173 49.5t104 130t49 185t12 215.5zM1200 719q0 -133 -26.5 -265t-90 -237.5t-170 -172.5 t-266.5 -67t-266.5 67t-170 172.5t-90 237.5t-26.5 265q0 131 26.5 263t90 238.5t170 172t266.5 65.5t266.5 -65.5t170 -171t90 -237.5t26.5 -265zM563 1766q0 -47 -33 -78t-78 -31t-77.5 31t-32.5 78q0 45 32.5 76.5t77.5 31.5t78 -31.5t33 -76.5zM950 1766q0 -47 -33 -79 t-78 -32t-77.5 32t-32.5 79q0 45 32.5 76.5t77.5 31.5t78 -31.5t33 -76.5z" />
<glyph unicode="&#xd7;" horiz-adv-x="1056" d="M639 498l295 -295l-111 -111l-295 295l-295 -295l-110 111l295 295l-295 295l110 110l295 -295l295 295l111 -110z" />
<glyph unicode="&#xd8;" horiz-adv-x="1292" d="M985 719q0 106 -11 205.5t-44 179.5l-508 -871q39 -45 94 -69.5t131 -24.5q106 0 173 49.5t104 130t49 185t12 215.5zM870 1204q-39 45 -93 69.5t-130 24.5q-109 0 -174 -49t-102 -130t-49.5 -185.5t-12.5 -214.5q0 -109 11.5 -208t44.5 -179zM1200 719 q0 -133 -26.5 -264t-90 -237.5t-170 -172t-266.5 -65.5q-98 0 -177 24.5t-138 71.5l-80 -137l-88 49l94 162q-92 111 -128 262t-36 307q0 131 26.5 264t90 238.5t170 172t266.5 66.5q98 0 176 -26.5t138 -73.5l81 139l88 -49l-94 -162q45 -55 77 -121.5t51.5 -140.5 t27.5 -152.5t8 -154.5z" />
<glyph unicode="&#xd9;" horiz-adv-x="1288" d="M1141 498q0 -115 -29 -211.5t-89 -165t-152.5 -106.5t-219.5 -38q-129 0 -222 38t-153.5 106.5t-89 165t-28.5 211.5v940h202v-963q0 -70 13.5 -131t45.5 -106t88 -72t142 -27t141.5 27t88 72t45 106.5t12.5 130.5v963h205v-940zM438 1840l100 114l309 -293l-77 -86z" />
<glyph unicode="&#xda;" horiz-adv-x="1288" d="M1141 498q0 -115 -29 -211.5t-89 -165t-152.5 -106.5t-219.5 -38q-129 0 -222 38t-153.5 106.5t-89 165t-28.5 211.5v940h202v-963q0 -70 13.5 -131t45.5 -106t88 -72t142 -27t141.5 27t88 72t45 106.5t12.5 130.5v963h205v-940zM516 1575l-78 86l307 293l102 -114z" />
<glyph unicode="&#xdb;" horiz-adv-x="1288" d="M1141 498q0 -115 -29 -211.5t-89 -165t-152.5 -106.5t-219.5 -38q-129 0 -222 38t-153.5 106.5t-89 165t-28.5 211.5v940h202v-963q0 -70 13.5 -131t45.5 -106t88 -72t142 -27t141.5 27t88 72t45 106.5t12.5 130.5v963h205v-940zM881 1588l-236 190h-4l-233 -190l-84 114 l319 238l320 -238z" />
<glyph unicode="&#xdc;" horiz-adv-x="1288" d="M1141 498q0 -115 -29 -211.5t-89 -165t-152.5 -106.5t-219.5 -38q-129 0 -222 38t-153.5 106.5t-89 165t-28.5 211.5v940h202v-963q0 -70 13.5 -131t45.5 -106t88 -72t142 -27t141.5 27t88 72t45 106.5t12.5 130.5v963h205v-940zM561 1766q0 -47 -33 -78t-78 -31 t-77.5 31t-32.5 78q0 45 32.5 76.5t77.5 31.5t78 -31.5t33 -76.5zM948 1766q0 -47 -33 -79t-78 -32t-77.5 32t-32.5 79q0 45 32.5 76.5t77.5 31.5t78 -31.5t33 -76.5z" />
<glyph unicode="&#xdd;" horiz-adv-x="1130" d="M659 545v-545h-202v545l-404 882l207 21l184 -436l29 -64l35 -86l49 -125h4l48 125l34 86l29 64l180 426h217zM439 1575l-78 86l307 293l102 -114z" />
<glyph unicode="&#xde;" horiz-adv-x="1067" d="M778 768q0 59 -13 109.5t-41 87t-74 58t-109 21.5h-181v-552h185q66 0 109.5 20t71.5 57t40 88.5t12 110.5zM993 768q0 -104 -32.5 -186t-90 -137.5t-136.5 -84t-171 -28.5h-203v-332h-202v1438h202v-232h195q92 0 173 -28.5t139.5 -85t92 -138.5t33.5 -186z" />
<glyph unicode="&#xdf;" horiz-adv-x="1085" d="M111 1159q0 82 24.5 147.5t70.5 111.5t110.5 72t144.5 26q74 0 134 -24t102 -62.5t65.5 -90t23.5 -104.5q0 -106 -28.5 -170t-63.5 -112t-63.5 -95t-28.5 -121q0 -49 28.5 -79.5t73 -54t95.5 -47.5t95 -57.5t72.5 -83.5t28.5 -128q0 -86 -34.5 -144.5t-88 -95.5 t-120 -53.5t-129.5 -16.5q-66 0 -121.5 16.5t-114.5 45.5l64 143q43 -23 87 -37t83 -14q78 0 127 38t49 116q0 47 -28 75.5t-70 52t-90 47t-90 58.5t-69.5 87t-27.5 132q0 82 28.5 136.5t64.5 104.5t64.5 105.5t28.5 141.5q0 55 -44 95t-103 40q-74 0 -120 -53.5t-46 -186.5 v-1218h-184v1257z" />
<glyph unicode="&#xe0;" horiz-adv-x="985" d="M696 0l-10 104h-4q-41 -57 -117 -92t-162 -35q-66 0 -122 21.5t-99 61.5t-67.5 95.5t-24.5 125.5q0 72 31 125t82 89.5t116.5 56t137.5 23.5l209 11v104q0 102 -40 157.5t-149 55.5q-74 0 -138.5 -21.5t-125.5 -50.5l-61 136q63 35 148 62.5t179 27.5q184 0 277.5 -97.5 t93.5 -267.5v-692h-154zM666 463l-183 -8q-100 -4 -147 -49.5t-47 -118.5q0 -66 36.5 -111t108.5 -45q70 0 123 25.5t109 74.5v232zM287 1430l100 114l309 -293l-77 -86z" />
<glyph unicode="&#xe1;" horiz-adv-x="985" d="M696 0l-10 104h-4q-41 -57 -117 -92t-162 -35q-66 0 -122 21.5t-99 61.5t-67.5 95.5t-24.5 125.5q0 72 31 125t82 89.5t116.5 56t137.5 23.5l209 11v104q0 102 -40 157.5t-149 55.5q-74 0 -138.5 -21.5t-125.5 -50.5l-61 136q63 35 148 62.5t179 27.5q184 0 277.5 -97.5 t93.5 -267.5v-692h-154zM666 463l-183 -8q-100 -4 -147 -49.5t-47 -118.5q0 -66 36.5 -111t108.5 -45q70 0 123 25.5t109 74.5v232zM365 1165l-78 86l307 293l102 -114z" />
<glyph unicode="&#xe2;" horiz-adv-x="985" d="M696 0l-10 104h-4q-41 -57 -117 -92t-162 -35q-66 0 -122 21.5t-99 61.5t-67.5 95.5t-24.5 125.5q0 72 31 125t82 89.5t116.5 56t137.5 23.5l209 11v104q0 102 -40 157.5t-149 55.5q-74 0 -138.5 -21.5t-125.5 -50.5l-61 136q63 35 148 62.5t179 27.5q184 0 277.5 -97.5 t93.5 -267.5v-692h-154zM666 463l-183 -8q-100 -4 -147 -49.5t-47 -118.5q0 -66 36.5 -111t108.5 -45q70 0 123 25.5t109 74.5v232zM729 1178l-236 190h-4l-233 -190l-84 114l319 238l320 -238z" />
<glyph unicode="&#xe3;" horiz-adv-x="985" d="M696 0l-10 104h-4q-41 -57 -117 -92t-162 -35q-66 0 -122 21.5t-99 61.5t-67.5 95.5t-24.5 125.5q0 72 31 125t82 89.5t116.5 56t137.5 23.5l209 11v104q0 102 -40 157.5t-149 55.5q-74 0 -138.5 -21.5t-125.5 -50.5l-61 136q63 35 148 62.5t179 27.5q184 0 277.5 -97.5 t93.5 -267.5v-692h-154zM666 463l-183 -8q-100 -4 -147 -49.5t-47 -118.5q0 -66 36.5 -111t108.5 -45q70 0 123 25.5t109 74.5v232zM779 1374q-8 -20 -23.5 -42.5t-38 -41t-51.5 -31t-64 -12.5q-39 0 -69.5 12.5t-56 25.5t-47 25.5t-44.5 12.5q-37 0 -77 -57l-101 69 q8 20 24.5 43t39 41.5t51.5 30.5t63 12q39 0 70 -12t55 -26l47 -25q23 -12 45 -13q39 0 76 56z" />
<glyph unicode="&#xe4;" horiz-adv-x="985" d="M696 0l-10 104h-4q-41 -57 -117 -92t-162 -35q-66 0 -122 21.5t-99 61.5t-67.5 95.5t-24.5 125.5q0 72 31 125t82 89.5t116.5 56t137.5 23.5l209 11v104q0 102 -40 157.5t-149 55.5q-74 0 -138.5 -21.5t-125.5 -50.5l-61 136q63 35 148 62.5t179 27.5q184 0 277.5 -97.5 t93.5 -267.5v-692h-154zM666 463l-183 -8q-100 -4 -147 -49.5t-47 -118.5q0 -66 36.5 -111t108.5 -45q70 0 123 25.5t109 74.5v232zM412 1356q0 -47 -33 -78t-78 -31t-77.5 31t-32.5 78q0 45 32.5 76.5t77.5 31.5t78 -31.5t33 -76.5zM799 1356q0 -47 -33 -79t-78 -32 t-77.5 32t-32.5 79q0 45 32.5 76.5t77.5 31.5t78 -31.5t33 -76.5z" />
<glyph unicode="&#xe5;" horiz-adv-x="985" d="M696 0l-10 104h-4q-41 -57 -117 -92t-162 -35q-66 0 -122 21.5t-99 61.5t-67.5 95.5t-24.5 125.5q0 72 31 125t82 89.5t116.5 56t137.5 23.5l209 11v104q0 102 -40 157.5t-149 55.5q-74 0 -138.5 -21.5t-125.5 -50.5l-61 136q63 35 148 62.5t179 27.5q184 0 277.5 -97.5 t93.5 -267.5v-692h-154zM666 463l-183 -8q-100 -4 -147 -49.5t-47 -118.5q0 -66 36.5 -111t108.5 -45q70 0 123 25.5t109 74.5v232zM573 1354q0 35 -23.5 60.5t-58.5 25.5t-58 -25.5t-23 -60.5t23.5 -59.5t57.5 -24.5q35 0 58.5 24.5t23.5 59.5zM668 1354q0 -37 -14.5 -69 t-38 -55.5t-55.5 -36.5t-69 -13q-74 0 -125 51t-51 123q0 74 51.5 125t124.5 51q37 0 69 -13.5t55.5 -38t38 -56t14.5 -68.5z" />
<glyph unicode="&#xe6;" horiz-adv-x="1605" d="M852 473q10 -174 81 -258t193 -84q74 0 140.5 19.5t122.5 42.5l55 -144q-63 -29 -143 -50.5t-185 -21.5q-119 0 -203 42t-137 114q-92 -88 -190.5 -122t-182.5 -34q-66 0 -122 21.5t-99 61.5t-67.5 95.5t-24.5 125.5q0 72 31 125t82 89.5t116.5 56t137.5 23.5l209 11v104 q0 102 -40 157.5t-149 55.5q-74 0 -138.5 -21.5t-125.5 -50.5l-61 136q63 35 148 62.5t179 27.5q109 0 185.5 -35t121.5 -100q51 61 125 98t179 37q117 0 196.5 -45t127.5 -118t68.5 -165t20.5 -184v-43zM1315 633q-14 135 -63.5 202.5t-161.5 67.5q-92 0 -157 -65.5 t-79 -227.5zM713 250q-20 49 -30.5 103.5t-14.5 109.5l-185 -8q-100 -4 -147 -48.5t-47 -119.5q0 -66 36.5 -111t108.5 -45q70 0 144 29t135 90z" />
<glyph unicode="&#xe7;" horiz-adv-x="929" d="M889 55q-84 -37 -163 -57.5t-163 -20.5q-125 0 -214 45.5t-146.5 120t-85 173t-27.5 204.5t30 203.5t89 171.5t151.5 118t214.5 44q76 0 143.5 -17.5t158.5 -58.5l-62 -139q-72 35 -129 48t-111 13q-74 0 -127 -30.5t-88.5 -83t-53 -122t-17.5 -149.5q0 -82 16.5 -152.5 t50 -123t85 -82t122.5 -29.5q127 0 264 66zM631 -57q0 -84 -25.5 -149.5t-59.5 -113t-67.5 -75t-48.5 -37.5l-98 88l35 36q23 24 43 57.5t35.5 76.5t15.5 96v21h170z" />
<glyph unicode="&#xe8;" horiz-adv-x="1030" d="M739 633q-14 135 -63 202.5t-162 67.5q-92 0 -156.5 -65.5t-78.5 -227.5zM276 473q10 -174 81 -258t194 -84q74 0 140.5 19.5t121.5 42.5l55 -144q-63 -29 -143 -50.5t-184 -21.5q-123 0 -209 46.5t-140.5 122t-78 172t-23.5 198.5q0 96 21.5 193.5t71.5 174.5t131 125 t200 48q117 0 197 -45t128 -118t68.5 -165t20.5 -184v-43zM309 1430l100 114l309 -293l-77 -86z" />
<glyph unicode="&#xe9;" horiz-adv-x="1030" d="M739 633q-14 135 -63 202.5t-162 67.5q-92 0 -156.5 -65.5t-78.5 -227.5zM276 473q10 -174 81 -258t194 -84q74 0 140.5 19.5t121.5 42.5l55 -144q-63 -29 -143 -50.5t-184 -21.5q-123 0 -209 46.5t-140.5 122t-78 172t-23.5 198.5q0 96 21.5 193.5t71.5 174.5t131 125 t200 48q117 0 197 -45t128 -118t68.5 -165t20.5 -184v-43zM387 1165l-78 86l307 293l102 -114z" />
<glyph unicode="&#xea;" horiz-adv-x="1030" d="M739 633q-14 135 -63 202.5t-162 67.5q-92 0 -156.5 -65.5t-78.5 -227.5zM276 473q10 -174 81 -258t194 -84q74 0 140.5 19.5t121.5 42.5l55 -144q-63 -29 -143 -50.5t-184 -21.5q-123 0 -209 46.5t-140.5 122t-78 172t-23.5 198.5q0 96 21.5 193.5t71.5 174.5t131 125 t200 48q117 0 197 -45t128 -118t68.5 -165t20.5 -184v-43zM752 1178l-236 190h-4l-233 -190l-84 114l319 238l320 -238z" />
<glyph unicode="&#xeb;" horiz-adv-x="1030" d="M739 633q-14 135 -63 202.5t-162 67.5q-92 0 -156.5 -65.5t-78.5 -227.5zM276 473q10 -174 81 -258t194 -84q74 0 140.5 19.5t121.5 42.5l55 -144q-63 -29 -143 -50.5t-184 -21.5q-123 0 -209 46.5t-140.5 122t-78 172t-23.5 198.5q0 96 21.5 193.5t71.5 174.5t131 125 t200 48q117 0 197 -45t128 -118t68.5 -165t20.5 -184v-43zM434 1356q0 -47 -33 -78t-78 -31t-77.5 31t-32.5 78q0 45 32.5 76.5t77.5 31.5t78 -31.5t33 -76.5zM821 1356q0 -47 -33 -79t-78 -32t-77.5 32t-32.5 79q0 45 32.5 76.5t77.5 31.5t78 -31.5t33 -76.5z" />
<glyph unicode="&#xec;" horiz-adv-x="548" d="M170 0v1036l184 23v-1059h-184zM31 1430l100 114l309 -293l-77 -86z" />
<glyph unicode="&#xed;" horiz-adv-x="548" d="M170 0v1036l184 23v-1059h-184zM150 1165l-78 86l307 293l102 -114z" />
<glyph unicode="&#xee;" horiz-adv-x="548" d="M170 0v1036l184 23v-1059h-184zM494 1178l-236 190h-4l-233 -190l-84 114l319 238l320 -238z" />
<glyph unicode="&#xef;" horiz-adv-x="548" d="M170 0v1036l184 23v-1059h-184zM178 1356q0 -47 -33 -78t-78 -31t-77.5 31t-32.5 78q0 45 32.5 76.5t77.5 31.5t78 -31.5t33 -76.5zM565 1356q0 -47 -33 -79t-78 -32t-77.5 32t-32.5 79q0 45 32.5 76.5t77.5 31.5t78 -31.5t33 -76.5z" />
<glyph unicode="&#xf0;" horiz-adv-x="1075" d="M778 489q0 78 -11 144.5t-40 115t-76 75t-116 26.5q-72 0 -118 -26.5t-73 -75t-37 -115t-10 -144.5t10 -144t38 -113.5t73 -74t117 -26.5t118.5 26.5t74.5 74t39 113.5t11 144zM977 489q0 -96 -23.5 -188t-77 -163.5t-137.5 -116t-202 -44.5q-121 0 -204 44.5t-135.5 116 t-76 163.5t-23.5 188t23.5 188.5t76 165t135.5 117t202 44.5q100 0 174 -31q-35 86 -83 148.5t-102 109.5l-229 -139l-51 84l196 118q-45 29 -88 53l-84 44l80 125q63 -25 123.5 -58t118.5 -74l205 125l51 -84l-174 -106q68 -61 123 -141t96 -181.5t63.5 -227.5t22.5 -280z " />
<glyph unicode="&#xf1;" horiz-adv-x="1073" d="M754 0v653q0 53 -8.5 99.5t-29 80t-55 52t-88.5 18.5q-72 0 -135 -40t-110 -101v-762h-185v1036h154l14 -118h4q45 57 120 99t153 42q88 0 153.5 -30t109.5 -80t65.5 -119.5t21.5 -149.5v-680h-184zM824 1374q-8 -20 -23.5 -42.5t-38 -41t-51.5 -31t-64 -12.5 q-39 0 -69.5 12.5t-56 25.5t-47 25.5t-44.5 12.5q-37 0 -77 -57l-101 69q8 20 24.5 43t39 41.5t51.5 30.5t63 12q39 0 70 -12t55 -26l47 -25q23 -12 45 -13q39 0 76 56z" />
<glyph unicode="&#xf2;" horiz-adv-x="1058" d="M770 516q0 82 -11 152.5t-40 123t-76 82t-117 29.5q-72 0 -118 -29.5t-72.5 -82t-36.5 -123t-10 -152.5t10 -152.5t38 -122t73 -81t116 -29.5q72 0 119 29.5t75 81t39 122t11 152.5zM969 516q0 -102 -23.5 -199.5t-77 -172t-137.5 -121t-203 -46.5q-121 0 -203.5 46.5 t-135 121t-76 172t-23.5 199.5q0 100 23.5 197.5t76 174.5t135.5 123t201 46q121 0 205 -46t137.5 -123t77 -174.5t23.5 -197.5zM324 1430l100 114l309 -293l-77 -86z" />
<glyph unicode="&#xf3;" horiz-adv-x="1058" d="M770 516q0 82 -11 152.5t-40 123t-76 82t-117 29.5q-72 0 -118 -29.5t-72.5 -82t-36.5 -123t-10 -152.5t10 -152.5t38 -122t73 -81t116 -29.5q72 0 119 29.5t75 81t39 122t11 152.5zM969 516q0 -102 -23.5 -199.5t-77 -172t-137.5 -121t-203 -46.5q-121 0 -203.5 46.5 t-135 121t-76 172t-23.5 199.5q0 100 23.5 197.5t76 174.5t135.5 123t201 46q121 0 205 -46t137.5 -123t77 -174.5t23.5 -197.5zM402 1165l-78 86l307 293l102 -114z" />
<glyph unicode="&#xf4;" horiz-adv-x="1058" d="M770 516q0 82 -11 152.5t-40 123t-76 82t-117 29.5q-72 0 -118 -29.5t-72.5 -82t-36.5 -123t-10 -152.5t10 -152.5t38 -122t73 -81t116 -29.5q72 0 119 29.5t75 81t39 122t11 152.5zM969 516q0 -102 -23.5 -199.5t-77 -172t-137.5 -121t-203 -46.5q-121 0 -203.5 46.5 t-135 121t-76 172t-23.5 199.5q0 100 23.5 197.5t76 174.5t135.5 123t201 46q121 0 205 -46t137.5 -123t77 -174.5t23.5 -197.5zM766 1178l-236 190h-4l-233 -190l-84 114l319 238l320 -238z" />
<glyph unicode="&#xf5;" horiz-adv-x="1058" d="M770 516q0 82 -11 152.5t-40 123t-76 82t-117 29.5q-72 0 -118 -29.5t-72.5 -82t-36.5 -123t-10 -152.5t10 -152.5t38 -122t73 -81t116 -29.5q72 0 119 29.5t75 81t39 122t11 152.5zM969 516q0 -102 -23.5 -199.5t-77 -172t-137.5 -121t-203 -46.5q-121 0 -203.5 46.5 t-135 121t-76 172t-23.5 199.5q0 100 23.5 197.5t76 174.5t135.5 123t201 46q121 0 205 -46t137.5 -123t77 -174.5t23.5 -197.5zM815 1374q-8 -20 -23.5 -42.5t-38 -41t-51.5 -31t-64 -12.5q-39 0 -69.5 12.5t-56 25.5t-47 25.5t-44.5 12.5q-37 0 -77 -57l-101 69 q8 20 24.5 43t39 41.5t51.5 30.5t63 12q39 0 70 -12t55 -26l47 -25q23 -12 45 -13q39 0 76 56z" />
<glyph unicode="&#xf6;" horiz-adv-x="1058" d="M770 516q0 82 -11 152.5t-40 123t-76 82t-117 29.5q-72 0 -118 -29.5t-72.5 -82t-36.5 -123t-10 -152.5t10 -152.5t38 -122t73 -81t116 -29.5q72 0 119 29.5t75 81t39 122t11 152.5zM969 516q0 -102 -23.5 -199.5t-77 -172t-137.5 -121t-203 -46.5q-121 0 -203.5 46.5 t-135 121t-76 172t-23.5 199.5q0 100 23.5 197.5t76 174.5t135.5 123t201 46q121 0 205 -46t137.5 -123t77 -174.5t23.5 -197.5zM449 1356q0 -47 -33 -78t-78 -31t-77.5 31t-32.5 78q0 45 32.5 76.5t77.5 31.5t78 -31.5t33 -76.5zM836 1356q0 -47 -33 -79t-78 -32t-77.5 32 t-32.5 79q0 45 32.5 76.5t77.5 31.5t78 -31.5t33 -76.5z" />
<glyph unicode="&#xf7;" horiz-adv-x="1236" d="M752 862q0 -53 -39 -92t-95 -39q-53 0 -92 39t-39 92q0 55 39 94t92 39q55 0 94.5 -39t39.5 -94zM123 424v156h991v-156h-991zM752 139q0 -55 -39 -94t-95 -39q-53 0 -92 39t-39 94q0 53 39 92t92 39q55 0 94.5 -39t39.5 -92z" />
<glyph unicode="&#xf8;" horiz-adv-x="1058" d="M770 520q0 70 -7 129.5t-26 108.5l-342 -582q51 -43 137 -43q72 0 118 30t73 82t37 122.5t10 152.5zM668 862q-55 43 -136 43q-72 0 -118.5 -29.5t-74.5 -81t-39 -122t-11 -152.5q0 -70 8 -130t27 -109zM969 520q0 -102 -23.5 -198.5t-76 -173t-135.5 -122.5t-202 -46 q-66 0 -120 14t-99 41l-80 -135l-100 57l90 152q-70 78 -101.5 186t-31.5 225q0 102 23.5 199.5t77 172.5t136.5 121t203 46q66 0 120.5 -14.5t99.5 -40.5l79 135l99 -58l-88 -151q70 -78 99.5 -185.5t29.5 -224.5z" />
<glyph unicode="&#xf9;" horiz-adv-x="1095" d="M786 0l-14 119h-4q-45 -57 -120 -99.5t-152 -42.5q-88 0 -154 29t-110 80t-65.5 119.5t-21.5 148.5v682h185v-653q0 -53 8 -99t28.5 -80t55.5 -53.5t88 -19.5q72 0 135.5 41t110.5 102v762h184v-1036h-154zM342 1430l100 114l309 -293l-77 -86z" />
<glyph unicode="&#xfa;" horiz-adv-x="1095" d="M786 0l-14 119h-4q-45 -57 -120 -99.5t-152 -42.5q-88 0 -154 29t-110 80t-65.5 119.5t-21.5 148.5v682h185v-653q0 -53 8 -99t28.5 -80t55.5 -53.5t88 -19.5q72 0 135.5 41t110.5 102v762h184v-1036h-154zM420 1165l-78 86l307 293l102 -114z" />
<glyph unicode="&#xfb;" horiz-adv-x="1095" d="M786 0l-14 119h-4q-45 -57 -120 -99.5t-152 -42.5q-88 0 -154 29t-110 80t-65.5 119.5t-21.5 148.5v682h185v-653q0 -53 8 -99t28.5 -80t55.5 -53.5t88 -19.5q72 0 135.5 41t110.5 102v762h184v-1036h-154zM785 1178l-236 190h-4l-233 -190l-84 114l319 238l320 -238z " />
<glyph unicode="&#xfc;" horiz-adv-x="1095" d="M786 0l-14 119h-4q-45 -57 -120 -99.5t-152 -42.5q-88 0 -154 29t-110 80t-65.5 119.5t-21.5 148.5v682h185v-653q0 -53 8 -99t28.5 -80t55.5 -53.5t88 -19.5q72 0 135.5 41t110.5 102v762h184v-1036h-154zM465 1356q0 -47 -33 -78t-78 -31t-77.5 31t-32.5 78 q0 45 32.5 76.5t77.5 31.5t78 -31.5t33 -76.5zM852 1356q0 -47 -33 -79t-78 -32t-77.5 32t-32.5 79q0 45 32.5 76.5t77.5 31.5t78 -31.5t33 -76.5z" />
<glyph unicode="&#xfd;" horiz-adv-x="966" d="M391 -459l-186 23l184 491l-373 969l185 23l284 -789h4l265 776h196zM357 1165l-78 86l307 293l102 -114z" />
<glyph unicode="&#xfe;" horiz-adv-x="1077" d="M780 518q0 80 -10 150.5t-35.5 123t-67.5 82t-104 29.5q-31 0 -64.5 -12t-65.5 -32.5t-57.5 -45.5t-41.5 -51v-594q31 -14 81 -25.5t97 -11.5q70 0 120 29.5t83 82t49 123t16 152.5zM979 518q0 -102 -25.5 -199.5t-81 -173t-141.5 -122t-205 -46.5q-53 0 -108.5 12.5 t-83.5 24.5v-448h-184v1907l184 43v-580q39 47 107.5 85t142.5 38q111 0 186.5 -48t121.5 -126t66.5 -174.5t20.5 -192.5z" />
<glyph unicode="&#xff;" horiz-adv-x="966" d="M391 -459l-186 23l184 491l-373 969l185 23l284 -789h4l265 776h196zM404 1356q0 -47 -33 -78t-78 -31t-77.5 31t-32.5 78q0 45 32.5 76.5t77.5 31.5t78 -31.5t33 -76.5zM791 1356q0 -47 -33 -79t-78 -32t-77.5 32t-32.5 79q0 45 32.5 76.5t77.5 31.5t78 -31.5t33 -76.5z " />
<glyph unicode="&#x131;" horiz-adv-x="548" d="M170 0v1036l184 23v-1059h-184z" />
<glyph unicode="&#x152;" horiz-adv-x="1855" d="M985 719q0 113 -12 217t-48 185t-102.5 129t-173.5 48q-106 0 -172.5 -49t-103.5 -130t-50.5 -185.5t-13.5 -214.5q0 -111 13.5 -215.5t50.5 -185t103.5 -130t172.5 -49.5t173 49.5t103 130t48 185t12 215.5zM1004 0v111q-63 -61 -150.5 -97.5t-204.5 -36.5 q-160 0 -266.5 67t-171 172.5t-91 237.5t-26.5 265q0 131 26.5 263t91 238.5t171 172t266.5 65.5q117 0 204 -36t151 -97v113h759l-16 -162h-541v-461h498v-162h-498v-491h555l17 -162h-774z" />
<glyph unicode="&#x153;" horiz-adv-x="1703" d="M963 473q10 -174 80.5 -258t193.5 -84q74 0 140.5 19.5t121.5 42.5l55 -144q-63 -29 -143 -50.5t-184 -21.5q-129 0 -216 50.5t-141 130.5q-49 -80 -133 -130.5t-209 -50.5q-121 0 -203.5 46.5t-135 121t-76 172t-23.5 199.5q0 100 23.5 197.5t76 174.5t135.5 123t201 46 q125 0 207 -49.5t133 -128.5q49 78 131 128t203 50q117 0 197 -45t128 -118t68.5 -165t20.5 -184v-43zM1425 633q-14 135 -63 202.5t-162 67.5q-92 0 -156.5 -65.5t-78.5 -227.5zM770 516q0 82 -11 152.5t-40 123t-76 82t-117 29.5q-72 0 -118 -29.5t-72.5 -82t-36.5 -123 t-10 -152.5t10 -152.5t38 -122t73 -81t116 -29.5q72 0 119 29.5t75 81t39 122t11 152.5z" />
<glyph unicode="&#x178;" horiz-adv-x="1130" d="M659 545v-545h-202v545l-404 882l207 21l184 -436l29 -64l35 -86l49 -125h4l48 125l34 86l29 64l180 426h217zM484 1766q0 -47 -33 -78t-78 -31t-77.5 31t-32.5 78q0 45 32.5 76.5t77.5 31.5t78 -31.5t33 -76.5zM871 1766q0 -47 -33 -79t-78 -32t-77.5 32t-32.5 79 q0 45 32.5 76.5t77.5 31.5t78 -31.5t33 -76.5z" />
<glyph unicode="&#x192;" horiz-adv-x="819" d="M293 848l31 342q4 45 23.5 101.5t60.5 105.5t105.5 82.5t158.5 33.5q53 0 111.5 -13t95.5 -30l-41 -124q-29 10 -73 20t-83 10q-90 0 -141.5 -45t-61.5 -160l-28 -323h290l-14 -117h-287l-104 -1167h-158l105 1167h-197l14 117h193z" />
<glyph unicode="&#x2c6;" horiz-adv-x="950" d="M713 1178l-236 190h-4l-233 -190l-84 114l319 238l320 -238z" />
<glyph unicode="&#x2c7;" horiz-adv-x="950" d="M240 1530l233 -189h4l234 189l84 -113l-320 -239l-319 239z" />
<glyph unicode="&#x2d8;" horiz-adv-x="944" d="M760 1423q-53 -88 -130 -137t-159 -49q-84 0 -158.5 49t-128.5 137l101 84q57 -78 99 -106.5t87 -28.5t89 29t99 106z" />
<glyph unicode="&#x2d9;" horiz-adv-x="436" d="M330 1362q0 -47 -32 -80t-79 -33t-80 33t-33 80t33 80t80 33t79 -33t32 -80z" />
<glyph unicode="&#x2da;" horiz-adv-x="720" d="M442 1354q0 35 -23.5 60.5t-58.5 25.5t-58 -25.5t-23 -60.5t23.5 -59.5t57.5 -24.5q35 0 58.5 24.5t23.5 59.5zM537 1354q0 -37 -14.5 -69t-38 -55.5t-55.5 -36.5t-69 -13q-74 0 -125 51t-51 123q0 74 51.5 125t124.5 51q37 0 69 -13.5t55.5 -38t38 -56t14.5 -68.5z" />
<glyph unicode="&#x2db;" horiz-adv-x="507" d="M432 0q-104 -74 -147 -136.5t-43 -111.5q0 -68 63 -67q18 0 43 5t51 17l33 -108q-29 -14 -64.5 -23.5t-84.5 -9.5q-78 0 -130.5 46t-52.5 132q0 68 41 134.5t138 121.5h151h2z" />
<glyph unicode="&#x2dc;" horiz-adv-x="931" d="M752 1374q-8 -20 -23.5 -42.5t-38 -41t-51.5 -31t-64 -12.5q-39 0 -69.5 12.5t-56 25.5t-47 25.5t-44.5 12.5q-37 0 -77 -57l-101 69q8 20 24.5 43t39 41.5t51.5 30.5t63 12q39 0 70 -12t55 -26l47 -25q23 -12 45 -13q39 0 76 56z" />
<glyph unicode="&#x2dd;" horiz-adv-x="1077" d="M668 1165l-93 74l226 305l119 -94zM276 1165l-90 74l224 305l120 -94z" />
<glyph unicode="&#x3a9;" horiz-adv-x="1366" d="M809 0v154q68 27 110 84t65.5 132.5t31.5 166t8 182.5q0 113 -12.5 217t-49 185t-103 129t-173.5 48q-106 0 -173 -49t-103.5 -130t-49 -185.5t-12.5 -214.5q0 -92 8.5 -182.5t32 -166t65.5 -133t109 -83.5v-154h-459v154h195q-92 109 -129 259t-37 306q0 131 26.5 263 t90 238.5t170 172t266.5 65.5t266.5 -65.5t170 -171t90 -237.5t26.5 -265q0 -156 -37 -306.5t-129 -258.5h189v-154h-453z" />
<glyph unicode="&#x3c0;" horiz-adv-x="1222" d="M1024 903v-610q0 -94 27.5 -128t76.5 -34l-22 -154q-119 0 -191.5 70t-72.5 211v645h-439v-903h-184v903h-125v133h1055v-133h-125z" />
<glyph unicode="&#x2000;" horiz-adv-x="1024" />
<glyph unicode="&#x2001;" horiz-adv-x="2048" />
<glyph unicode="&#x2002;" horiz-adv-x="1024" />
<glyph unicode="&#x2003;" horiz-adv-x="2048" />
<glyph unicode="&#x2004;" horiz-adv-x="681" />
<glyph unicode="&#x2005;" horiz-adv-x="512" />
<glyph unicode="&#x2006;" horiz-adv-x="339" />
<glyph unicode="&#x2007;" />
<glyph unicode="&#x2008;" horiz-adv-x="505" />
<glyph unicode="&#x2009;" horiz-adv-x="204" />
<glyph unicode="&#x200a;" horiz-adv-x="20" />
<glyph unicode="&#x200b;" horiz-adv-x="0" />
<glyph unicode="&#x200c;" horiz-adv-x="0" />
<glyph unicode="&#x200d;" horiz-adv-x="0" />
<glyph unicode="&#x200e;" horiz-adv-x="681" />
<glyph unicode="&#x200f;" horiz-adv-x="681" />
<glyph unicode="&#x2010;" horiz-adv-x="712" d="M82 422v156h549v-156h-549z" />
<glyph unicode="&#x2011;" horiz-adv-x="712" d="M82 422v156h549v-156h-549z" />
<glyph unicode="&#x2012;" d="M82 422v156h952v-156h-952z" />
<glyph unicode="&#x2013;" horiz-adv-x="1024" d="M0 442v136h1024v-136h-1024z" />
<glyph unicode="&#x2014;" horiz-adv-x="2048" d="M0 442v136h2048v-136h-2048z" />
<glyph unicode="&#x2015;" horiz-adv-x="4096" d="M82 422v156h3932v-156h-3932z" />
<glyph unicode="&#x2016;" horiz-adv-x="1085" d="M889 -317h-149v1892h149v-1892zM346 -317h-149v1892h149v-1892z" />
<glyph unicode="&#x2018;" horiz-adv-x="520" d="M131 1077q0 59 18.5 117.5t47 111t60.5 92.5t60 62l76 -49q-37 -45 -72.5 -106.5t-31.5 -116.5q57 -10 84.5 -50t27.5 -79q0 -55 -39.5 -94t-93.5 -39q-59 0 -98 40.5t-39 110.5z" />
<glyph unicode="&#x2019;" horiz-adv-x="520" d="M401 1307q0 -59 -18 -118t-47 -110t-61.5 -91t-59.5 -62l-76 49q18 20 38 48t35 57.5t24.5 59t7.5 56.5q-57 10 -85 51t-28 78q0 55 40 95t93 40q59 0 98 -41.5t39 -111.5z" />
<glyph unicode="&#x201a;" horiz-adv-x="520" d="M401 88q0 -59 -18 -117.5t-47 -109.5t-61.5 -91t-59.5 -63l-76 49l38 49.5t35 56t24.5 59.5t7.5 56q-57 10 -85 51.5t-28 80.5q0 55 40 94t93 39q59 0 98 -41t39 -113z" />
<glyph unicode="&#x201c;" horiz-adv-x="874" d="M485 1077q0 59 18.5 117.5t47.5 111t60.5 92.5t60.5 62l76 -49q-37 -45 -73 -106.5t-32 -116.5q57 -10 85 -50t28 -79q0 -55 -40 -94t-95 -39q-57 0 -96.5 40.5t-39.5 110.5zM131 1077q0 59 18.5 117.5t47 111t60.5 92.5t60 62l76 -49q-37 -45 -72.5 -106.5t-31.5 -116.5 q57 -10 84.5 -50t27.5 -79q0 -55 -39.5 -94t-93.5 -39q-59 0 -98 40.5t-39 110.5z" />
<glyph unicode="&#x201d;" horiz-adv-x="874" d="M401 1307q0 -59 -18 -118t-47 -110t-61.5 -91t-59.5 -62l-76 49q18 20 38 48t35 57.5t24.5 59t7.5 56.5q-57 10 -85 51t-28 78q0 55 40 95t93 40q59 0 98 -41.5t39 -111.5zM756 1307q0 -59 -18.5 -118t-47 -110t-61.5 -91t-60 -62l-77 49q18 20 38.5 48t36 57.5t23.5 59 t6 56.5q-55 10 -83 51t-28 78q0 55 39 95t94 40q59 0 98.5 -41.5t39.5 -111.5z" />
<glyph unicode="&#x201e;" horiz-adv-x="874" d="M401 88q0 -59 -18 -117.5t-47 -109.5t-61.5 -91t-59.5 -63l-76 49l38 49.5t35 56t24.5 59.5t7.5 56q-57 10 -85 51.5t-28 80.5q0 55 40 94t93 39q59 0 98 -41t39 -113zM756 88q0 -59 -18.5 -117.5t-47 -109.5t-61.5 -91t-60 -63l-77 49l38 49q20 27 36 56.5t24 59.5t6 56 q-55 10 -83 51.5t-28 80.5q0 55 39 94t94 39q59 0 98.5 -41t39.5 -113z" />
<glyph unicode="&#x2020;" horiz-adv-x="1001" d="M563 999l23 -241l-23 -758h-127l-22 758l22 241h-313v146h313l-22 348h172l-23 -348h316v-146h-316z" />
<glyph unicode="&#x2021;" horiz-adv-x="999" d="M565 350l23 -350h-174l20 350h-311v146h311l-20 204v93l22 206h-313v146h313l-22 348h174l-23 -348h312v-146h-312l23 -206v-93l-23 -204h312v-146h-312z" />
<glyph unicode="&#x2022;" horiz-adv-x="765" d="M653 735q0 -55 -21.5 -104t-58 -86t-86 -58.5t-104.5 -21.5t-104.5 21.5t-86 58.5t-58 86t-21.5 104t21.5 104.5t58 86.5t86 58.5t104.5 21.5t104.5 -21.5t86 -58.5t58 -86.5t21.5 -104.5z" />
<glyph unicode="&#x2024;" horiz-adv-x="505" d="M395 109q0 -53 -39 -92.5t-94 -39.5q-53 0 -92 39t-39 93q0 55 39 94t92 39q55 0 94 -39t39 -94z" />
<glyph unicode="&#x2025;" horiz-adv-x="1011" d="M901 109q0 -53 -39 -92.5t-94 -39.5q-53 0 -92 39t-39 93q0 55 39 94t92 39q55 0 94 -39t39 -94zM395 109q0 -53 -39 -92.5t-94 -39.5q-53 0 -92 39t-39 93q0 55 39 94t92 39q55 0 94 -39t39 -94z" />
<glyph unicode="&#x2026;" horiz-adv-x="1689" d="M395 109q0 -53 -39 -92.5t-94 -39.5q-53 0 -92 39t-39 93q0 55 39 94t92 39q55 0 94 -39t39 -94zM983 109q0 -53 -39 -92.5t-92 -39.5q-55 0 -94 39t-39 93q0 55 39 94t94 39q53 0 92 -39t39 -94zM1571 109q0 -53 -38 -92.5t-93 -39.5t-94 39t-39 93q0 55 38.5 94 t94.5 39q55 0 93 -39t38 -94z" />
<glyph unicode="&#x202a;" horiz-adv-x="0" />
<glyph unicode="&#x202f;" horiz-adv-x="389" />
<glyph unicode="&#x2030;" horiz-adv-x="2394" d="M528 1014q0 98 -34.5 154.5t-112.5 56.5q-80 0 -115 -56.5t-35 -154.5q0 -92 35 -149.5t115 -57.5q78 0 112.5 56.5t34.5 150.5zM690 1014q0 -63 -17.5 -125t-54 -109t-96 -76.5t-141.5 -29.5q-84 0 -142.5 29.5t-95.5 76.5t-54 108.5t-17 125.5q0 63 17 125.5t54 111.5 t95.5 79t142.5 30q82 0 141.5 -30t96 -79t54 -111.5t17.5 -125.5zM598 0h-137l583 1337h142zM1427 317q0 96 -35.5 152.5t-115.5 56.5q-78 0 -113 -56t-35 -153q0 -96 35 -151t113 -55q80 0 115.5 54t35.5 152zM1585 317q0 -66 -17.5 -126t-54 -108t-95 -77t-142.5 -29 t-142.5 29t-95.5 77t-53 108.5t-16 125.5q0 63 16 125t53 110t95.5 77.5t142.5 29.5t142.5 -29.5t95 -77.5t54 -110t17.5 -125zM2165 317q0 96 -36 152.5t-114 56.5q-80 0 -114.5 -56t-34.5 -153q0 -96 34.5 -151t114.5 -55q78 0 114 54t36 152zM2322 317q0 -66 -17 -126 t-54 -108t-95.5 -77t-140.5 -29q-84 0 -142 29t-95 77t-54.5 108.5t-17.5 125.5q0 63 17.5 125t54.5 110t95 77.5t142 29.5q82 0 140.5 -29.5t95.5 -77.5t54 -110t17 -125z" />
<glyph unicode="&#x2032;" horiz-adv-x="575" d="M360 965h-143l-16 471h174z" />
<glyph unicode="&#x2033;" horiz-adv-x="1150" d="M935 965h-143l-16 471h174zM360 965h-143l-16 471h174z" />
<glyph unicode="&#x2034;" horiz-adv-x="1726" d="M1511 965h-143l-16 471h174zM935 965h-143l-16 471h174zM360 965h-143l-16 471h174z" />
<glyph unicode="&#x2035;" horiz-adv-x="819" d="M205 1430l100 114l309 -293l-77 -86z" />
<glyph unicode="&#x2036;" horiz-adv-x="1638" d="M1024 1430l100 114l309 -293l-77 -86zM205 1430l100 114l309 -293l-77 -86z" />
<glyph unicode="&#x2037;" horiz-adv-x="2457" d="M1843 1430l100 114l309 -293l-77 -86zM1024 1430l100 114l309 -293l-77 -86zM205 1430l100 114l309 -293l-77 -86z" />
<glyph unicode="&#x2039;" horiz-adv-x="684" d="M446 133l-333 365l333 364l125 -94l-245 -270l245 -271z" />
<glyph unicode="&#x203a;" horiz-adv-x="684" d="M238 862l333 -364l-333 -365l-125 94l245 271l-245 270z" />
<glyph unicode="&#x203c;" horiz-adv-x="1363" d="M1090 436h-138l-28 1002l194 22zM1145 100q0 -51 -36 -87t-87 -36t-86 36t-35 87q0 49 34 88t87 39q51 0 87 -39t36 -88zM408 436h-138l-28 1002l194 22zM463 100q0 -51 -36 -87t-87 -36t-86 36t-35 87q0 49 34 88t87 39q51 0 87 -39t36 -88z" />
<glyph unicode="&#x203e;" horiz-adv-x="512" d="M-275 123v156h549v-156h-549z" />
<glyph unicode="&#x2044;" horiz-adv-x="641" d="M14 -182h-147l760 1620h147z" />
<glyph unicode="&#x2047;" horiz-adv-x="1929" d="M1776 1110q0 -78 -23.5 -133t-57.5 -96t-75 -74t-74.5 -69t-57 -79t-23.5 -104v-119l-181 -30v110q0 100 23 164.5t56.5 111t72.5 78t73 64.5t56.5 71.5t22.5 100.5q0 78 -52.5 134t-140.5 56q-78 0 -141.5 -24.5t-120.5 -63.5l-76 133q66 47 151 83t189 36 q86 0 155.5 -29.5t119 -78.5t77 -112.5t27.5 -129.5zM1495 100q0 -51 -34.5 -87t-85.5 -36q-53 0 -87 36t-34 87q0 49 33.5 88t87.5 39q51 0 85.5 -39t34.5 -88zM811 1110q0 -78 -23.5 -133t-57.5 -96t-75 -74t-74.5 -69t-57 -79t-23.5 -104v-119l-181 -30v110 q0 100 23 164.5t56.5 111t72.5 78t73 64.5t56.5 71.5t22.5 100.5q0 78 -52.5 134t-140.5 56q-78 0 -141.5 -24.5t-120.5 -63.5l-76 133q66 47 151 83t189 36q86 0 155.5 -29.5t119 -78.5t77 -112.5t27.5 -129.5zM530 100q0 -51 -34.5 -87t-85.5 -36q-53 0 -87 36t-34 87 q0 49 33.5 88t87.5 39q51 0 85.5 -39t34.5 -88z" />
<glyph unicode="&#x2048;" horiz-adv-x="1646" d="M1373 436h-138l-28 1002l194 22zM1428 100q0 -51 -36 -87t-87 -36t-86 36t-35 87q0 49 34 88t87 39q51 0 87 -39t36 -88zM811 1110q0 -78 -23.5 -133t-57.5 -96t-75 -74t-74.5 -69t-57 -79t-23.5 -104v-119l-181 -30v110q0 100 23 164.5t56.5 111t72.5 78t73 64.5 t56.5 71.5t22.5 100.5q0 78 -52.5 134t-140.5 56q-78 0 -141.5 -24.5t-120.5 -63.5l-76 133q66 47 151 83t189 36q86 0 155.5 -29.5t119 -78.5t77 -112.5t27.5 -129.5zM530 100q0 -51 -34.5 -87t-85.5 -36q-53 0 -87 36t-34 87q0 49 33.5 88t87.5 39q51 0 85.5 -39t34.5 -88 z" />
<glyph unicode="&#x2049;" horiz-adv-x="1646" d="M1493 1110q0 -78 -23.5 -133t-57.5 -96t-75 -74t-74.5 -69t-57 -79t-23.5 -104v-119l-181 -30v110q0 100 23 164.5t56.5 111t72.5 78t73 64.5t56.5 71.5t22.5 100.5q0 78 -52.5 134t-140.5 56q-78 0 -141.5 -24.5t-120.5 -63.5l-76 133q66 47 151 83t189 36 q86 0 155.5 -29.5t119 -78.5t77 -112.5t27.5 -129.5zM1212 100q0 -51 -34.5 -87t-85.5 -36q-53 0 -87 36t-34 87q0 49 33.5 88t87.5 39q51 0 85.5 -39t34.5 -88zM408 436h-138l-28 1002l194 22zM463 100q0 -51 -36 -87t-87 -36t-86 36t-35 87q0 49 34 88t87 39q51 0 87 -39 t36 -88z" />
<glyph unicode="&#x2057;" horiz-adv-x="2301" d="M2086 965h-143l-16 471h174zM1511 965h-143l-16 471h174zM935 965h-143l-16 471h174zM360 965h-143l-16 471h174z" />
<glyph unicode="&#x205f;" horiz-adv-x="487" />
<glyph unicode="&#x2060;" horiz-adv-x="0" />
<glyph unicode="&#x20a8;" horiz-adv-x="1892" d="M1728 840q-47 29 -98 46t-109 17q-53 0 -99 -29.5t-46 -89.5q0 -55 31.5 -88.5t79 -60.5t101.5 -51.5t101 -61.5t79 -91t32 -138q0 -78 -29.5 -137.5t-80 -99.5t-116 -59.5t-135.5 -19.5q-78 0 -161.5 25t-149.5 68l60 139q23 -12 54.5 -26.5t65 -26t66.5 -18.5t59 -7 q78 0 125 36t47 120q0 51 -30.5 82.5t-77.5 57.5t-101.5 50.5t-101.5 61t-78 93t-31 144.5q0 70 31 122t80 88t109.5 53.5t117.5 17.5q78 0 145.5 -20.5t133.5 -61.5zM799 0l-289 575h-150v-575h-202v1438h397q92 0 173 -29t139.5 -83t92 -135t33.5 -185q0 -78 -22.5 -144.5 t-61.5 -118t-93 -88.5t-116 -57l326 -598h-227zM778 1006q0 117 -54 193.5t-183 76.5h-181v-545h185q61 0 105 22.5t73 59.5t42 87.5t13 105.5z" />
<glyph unicode="&#x20ac;" horiz-adv-x="1204" d="M909 508h-460q16 -100 47.5 -170t74.5 -114t95.5 -64.5t111.5 -20.5q76 0 155 20.5t150 55.5l50 -152q-84 -47 -172.5 -66.5t-182.5 -19.5t-180 33t-155.5 98.5t-121 166t-73.5 233.5h-174l28 127h131q-2 20 -2 40v42v43q0 20 2 43h-161l32 125h144q23 131 73 231.5 t121.5 166t160.5 99t192 33.5q170 0 325 -78l-51 -151q-135 68 -278 67q-129 0 -219.5 -86t-122.5 -282h538l-35 -125h-516q-2 -20 -2 -42v-44v-82h508z" />
<glyph unicode="&#x2122;" horiz-adv-x="1724" d="M684 1311h-192v-713h-148v713h-201v129h549zM1436 598l-15 371l-8 164h-4l-168 -449h-139l-168 449h-4l-4 -164l-19 -371h-153l59 842h156l133 -369l67 -192h5l71 192l133 369h154l57 -842h-153z" />
<glyph unicode="&#x2206;" horiz-adv-x="1284" d="M20 0l504 1436h240l500 -1436h-1244zM645 1255h-4l-375 -1101h752z" />
<glyph unicode="&#x220f;" horiz-adv-x="1546" d="M1296 1278v-1434h-204v1434h-619v-1434h-203v1434h-125v160h1276v-160h-125z" />
<glyph unicode="&#x2211;" horiz-adv-x="1087" d="M100 -158l-30 109l374 690l-374 688l30 109h822v-162h-623l342 -635l-342 -637h623v-162h-822z" />
<glyph unicode="&#x221a;" horiz-adv-x="1146" d="M694 0h-192l-307 903h-162v133h299l170 -514l26 -89l33 -107q18 -61 35 -127h4q16 66 35 127l32 107q15 54 27 89l355 1073h182z" />
<glyph unicode="&#x222b;" horiz-adv-x="778" d="M872 1323q-33 14 -66.5 22.5t-66.5 8.5q-37 0 -67.5 -9.5t-55 -32t-40 -60.5t-21.5 -97l-111 -1204q-16 -164 -113.5 -250t-248.5 -86q-55 0 -104.5 12.5t-96.5 34.5l64 145q35 -14 67.5 -22t67.5 -8t65.5 9t55 31.5t40 60.5t21.5 97l111 1205q16 164 113.5 250t248.5 86 q55 0 105.5 -12.5t97.5 -35.5z" />
<glyph unicode="&#x2248;" horiz-adv-x="1091" d="M958 623q-39 -23 -77.5 -35.5t-71.5 -16.5q-37 -8 -74 -6q-53 0 -104 17.5t-101 39.5l-93 40q-44 18 -81 18q-68 0 -121 -17.5t-102 -39.5v139q39 23 78 34t72 17q37 8 73 8q53 0 105.5 -18.5t100.5 -39.5l92 -40q44 -18 81 -18q70 0 123 17t100 40v-139zM958 244 q-39 -23 -77.5 -35t-71.5 -16q-37 -8 -74 -7q-53 0 -104 17.5t-101 39.5l-93 40q-44 18 -81 18q-68 0 -121 -16.5t-102 -40.5v141q39 23 78 33t72 16q37 6 73 8q53 0 105.5 -18t100.5 -40l92 -40q44 -18 81 -18q70 0 123 17t100 42v-141z" />
<glyph unicode="&#x2260;" horiz-adv-x="1236" d="M608 254l-82 -221l-137 51l62 170h-328v156h383l67 182h-450v156h508l80 221l139 -51l-64 -170h328v-156h-383l-67 -182h450v-156h-506z" />
<glyph unicode="&#x2264;" horiz-adv-x="837" d="M113 -211v141h612v-141h-612zM616 45l-495 453l493 460l103 -114l-375 -344l375 -336z" />
<glyph unicode="&#x2265;" horiz-adv-x="837" d="M113 -211v141h612v-141h-612zM121 164l375 336l-375 344l102 114l494 -460l-496 -453z" />
<glyph unicode="&#x25ca;" horiz-adv-x="1187" d="M690 0h-192l-383 719l383 719h192l383 -719zM596 1323h-4l-301 -604l301 -604h4l301 604z" />
<glyph unicode="&#xe000;" horiz-adv-x="1035" d="M0 1035h1035v-1035h-1035v1035z" />
<glyph unicode="&#xfb01;" horiz-adv-x="1206" d="M1038 1341q0 -47 -36.5 -79.5t-83.5 -32.5t-82 32.5t-35 79.5q0 49 34.5 84t82.5 35q47 0 83.5 -35t36.5 -84zM827 0v903h-460v-903h-185v903h-170v133h170v166q0 55 14.5 111.5t49.5 100.5t93 73t146 29q66 0 114 -13.5t77 -25.5l-49 -144q-29 10 -60.5 19.5t-66.5 9.5 q-29 0 -53.5 -6t-42 -24.5t-27.5 -51.5t-10 -86v-158h645v-1036h-185z" />
<glyph unicode="&#xfb02;" horiz-adv-x="1153" d="M627 1333q-29 10 -60.5 19.5t-66.5 9.5q-29 0 -53.5 -6t-42 -24.5t-27.5 -51.5t-10 -86v-158h229v-133h-229v-903h-185v903h-170v133h170v166q0 55 14.5 111.5t49.5 100.5t93 73t146 29q66 0 114 -13.5t77 -25.5zM800 0v1470l185 46v-1516h-185z" />
</font>
</defs>
</svg>
